<svg width="214" height="158" viewBox="0 0 214 158" fill="none" xmlns="http://www.w3.org/2000/svg" >
<g clip-path="url(#clip0_35_3022)">
<path d="M82.68 154.9C77.091 142.255 71.502 129.611 65.912 116.966C61.999 108.114 57.644 98.738 49.426 93.625C44.993 90.867 38.819 89.766 34.772 93.065C31.927 95.384 30.885 99.226 30.263 102.843C27.16 120.885 30.746 140 41.236 156.009C55.233 156.636 70.131 155.491 82.68 154.9Z" fill="#55D087" stroke="#010101" stroke-width="1.5" stroke-linecap="round" stroke-linejoin="round"></path>
<path d="M40.912 97.334C45.338 116.543 50.888 135.493 57.526 154.054" stroke="#010101" stroke-width="1.5" stroke-linecap="round" stroke-linejoin="round"></path>
<path d="M49.139 156.291C43.9 146.028 38.648 135.741 32.325 126.108C27.774 119.174 22.278 112.287 14.539 109.304C11.803 108.25 8.63098 107.757 5.99798 109.047C3.01998 110.506 1.46098 113.899 0.971976 117.179C-0.0910242 124.309 2.80698 131.405 6.10698 137.814C9.22698 143.872 12.766 149.715 18.025 155.768C30.652 155.93 39.588 156.169 49.137 156.291H49.139Z" fill="#55D087" stroke="#010101" stroke-width="1.5" stroke-linecap="round" stroke-linejoin="round"></path>
<path d="M9.34497 111.16C15.992 126.23 23.702 140.831 32.4 154.818L9.34497 111.16Z" fill="#55D087"></path>
<path d="M9.34497 111.16C15.992 126.23 23.702 140.831 32.4 154.818" stroke="#010101" stroke-width="1.5" stroke-linecap="round" stroke-linejoin="round"></path>
<path d="M172.992 155.339C168.751 122.078 162.943 62.112 156.788 13.845C97.1289 13.72 110.737 12.603 49.3979 13.016C54.7739 55.176 60.9869 114.815 66.084 154.782C116.253 155.81 83.976 155.339 172.992 155.339Z" fill="#010101" stroke="#010101" stroke-width="1.5" stroke-miterlimit="10"></path>
<path d="M60.4259 25.3879C70.4049 24.6449 80.4259 24.4539 90.4259 24.8149" stroke="white" stroke-width="1.5" stroke-linecap="round" stroke-linejoin="round"></path>
<path d="M99.892 24.805C103.94 24.723 107.987 24.642 112.035 24.56" stroke="white" stroke-width="1.5" stroke-linecap="round" stroke-linejoin="round"></path>
<path d="M119.806 24.94C127.287 24.562 134.78 24.402 142.27 24.461" stroke="white" stroke-width="1.5" stroke-linecap="round" stroke-linejoin="round"></path>
<path d="M60.9139 34.31C66.8209 34.513 72.7379 34.447 78.6389 34.111" stroke="white" stroke-width="1.5" stroke-linecap="round" stroke-linejoin="round"></path>
<path d="M86.2939 34.1889C98.5409 33.4649 110.822 33.3149 123.084 33.7369" stroke="white" stroke-width="1.5" stroke-linecap="round" stroke-linejoin="round"></path>
<path d="M62.2529 42.383C72.3729 42.89 82.5299 42.645 92.6139 41.649" stroke="white" stroke-width="1.5" stroke-linecap="round" stroke-linejoin="round"></path>
<path d="M100.865 41.233C103.737 41.104 106.612 41.05 109.487 41.073" stroke="white" stroke-width="1.5" stroke-linecap="round" stroke-linejoin="round"></path>
<path d="M118.714 41.103C122.559 41.022 126.404 40.941 130.25 40.86" stroke="white" stroke-width="1.5" stroke-linecap="round" stroke-linejoin="round"></path>
<path d="M65.408 52.024H73.665" stroke="white" stroke-width="1.5" stroke-linecap="round" stroke-linejoin="round"></path>
<path d="M80.5879 52.216C94.2269 51.778 107.866 51.34 121.506 50.901" stroke="white" stroke-width="1.5" stroke-linecap="round" stroke-linejoin="round"></path>
<path d="M128.914 50.798C132.516 50.81 136.119 50.821 139.721 50.833" stroke="white" stroke-width="1.5" stroke-linecap="round" stroke-linejoin="round"></path>
<path d="M66.0149 71.689C71.2359 71.852 76.4579 72.015 81.6789 72.178" stroke="white" stroke-width="1.5" stroke-linecap="round" stroke-linejoin="round"></path>
<path d="M86.902 72.609C93.255 72.407 99.609 72.205 105.962 72.003" stroke="white" stroke-width="1.5" stroke-linecap="round" stroke-linejoin="round"></path>
<path d="M114.099 72.013C125.617 71.948 137.133 71.37 148.6 70.282" stroke="white" stroke-width="1.5" stroke-linecap="round" stroke-linejoin="round"></path>
<path d="M67.8359 82.712C79.4999 82.784 91.1659 82.52 102.814 81.923" stroke="white" stroke-width="1.5" stroke-linecap="round" stroke-linejoin="round"></path>
<path d="M112.279 81.761C118.062 82.062 123.856 82.131 129.644 81.968" stroke="white" stroke-width="1.5" stroke-linecap="round" stroke-linejoin="round"></path>
<path d="M68.2 93.069C73.543 92.948 78.886 92.827 84.228 92.705" stroke="white" stroke-width="1.5" stroke-linecap="round" stroke-linejoin="round"></path>
<path d="M95.121 92.712C106.119 93.241 117.153 93.01 128.119 92.021" stroke="white" stroke-width="1.5" stroke-linecap="round" stroke-linejoin="round"></path>
<path d="M135.381 91.761L143.261 91.517" stroke="white" stroke-width="1.5" stroke-linecap="round" stroke-linejoin="round"></path>
<path d="M69.1439 102.379C77.5219 102.658 85.9169 102.455 94.2719 101.772" stroke="white" stroke-width="1.5" stroke-linecap="round" stroke-linejoin="round"></path>
<path d="M103.124 102.493C110.51 102.4 117.896 102.307 125.282 102.214" stroke="white" stroke-width="1.5" stroke-linecap="round" stroke-linejoin="round"></path>
<path d="M71.7269 118.447C79.4409 118.666 87.1619 118.64 94.8739 118.369" stroke="white" stroke-width="1.5" stroke-linecap="round" stroke-linejoin="round"></path>
<path d="M102.384 117.955C109.728 118.186 117.08 118.136 124.42 117.806" stroke="white" stroke-width="1.5" stroke-linecap="round" stroke-linejoin="round"></path>
<path d="M134.272 117.468C137.227 117.505 140.182 117.542 143.137 117.579" stroke="white" stroke-width="1.5" stroke-linecap="round" stroke-linejoin="round"></path>
<path d="M73.3269 128.456C86.4169 128.747 99.5129 128.741 112.603 128.44" stroke="white" stroke-width="1.5" stroke-linecap="round" stroke-linejoin="round"></path>
<path d="M123.437 129.27L151.387 129.426" stroke="white" stroke-width="1.5" stroke-linecap="round" stroke-linejoin="round"></path>
<path d="M75.299 138.263C81.808 138.795 88.3449 138.979 94.8739 138.813" stroke="white" stroke-width="1.5" stroke-linecap="round" stroke-linejoin="round"></path>
<path d="M102.263 138.833C120.884 139.58 139.529 139.722 158.16 139.258" stroke="white" stroke-width="1.5" stroke-linecap="round" stroke-linejoin="round"></path>
<path d="M49.54 14.14C48.8 10.285 48.272 6.98797 47.851 1.76797C83.783 1.47197 119.096 -0.0550278 155.168 1.30797C155.667 4.70597 156.676 10.143 156.747 13.825C121.634 13.691 85.618 13.606 49.54 14.14Z" fill="white" stroke="#010101" stroke-width="1.5" stroke-linecap="round" stroke-linejoin="round"></path>
<path d="M117.142 56.68L205.261 54.888C205.261 54.888 210.657 103.087 212.339 116.21C208.543 112.253 204.494 108.538 200.637 105.017C185.203 105.017 168.197 105.632 151.826 105.908C128.617 106.299 122.451 106.426 122.451 106.426L117.142 56.68Z" fill="#7B5FF1" stroke="#010101" stroke-width="1.5" stroke-linecap="round" stroke-linejoin="round"></path>
<path d="M146.156 68.054C141.565 73.233 132.725 82.958 132.725 82.958C132.725 82.958 142.343 92.346 148.087 94.754" stroke="white" stroke-width="1.5" stroke-linecap="round" stroke-linejoin="round"></path>
<path d="M171.268 64.292C167.479 77.435 164.132 86.922 160.52 99.449" stroke="white" stroke-width="1.5" stroke-linecap="round" stroke-linejoin="round"></path>
<path d="M178.75 68.054C183.645 71.821 188.541 75.588 193.436 79.355C193.681 79.543 193.944 79.761 193.993 80.066C194.049 80.416 193.803 80.736 193.571 81.005C190.226 84.898 184.036 91.927 180.477 95.487" stroke="white" stroke-width="1.5" stroke-linecap="round" stroke-linejoin="round"></path>
<path d="M150.076 4.18298C148.17 6.31098 146.263 8.43898 144.357 10.567L150.076 4.18298Z" fill="#7B5FF1"></path>
<path d="M150.076 4.18298C148.17 6.31098 146.263 8.43898 144.357 10.567" stroke="#010101" stroke-width="1.5" stroke-linecap="round" stroke-linejoin="round"></path>
<path d="M144.586 4.396L149.847 10.355L144.586 4.396Z" fill="#7B5FF1"></path>
<path d="M144.586 4.396L149.847 10.355" stroke="#010101" stroke-width="1.5" stroke-linecap="round" stroke-linejoin="round"></path>
</g>
<defs>
<clipPath id="clip0_35_3022">
<rect width="213.089" height="157.041" fill="white"></rect>
</clipPath>
</defs>
</svg>