<?xml version="1.0" ?><svg height="100%" id="svg2793" style="fill-rule:evenodd;clip-rule:evenodd;stroke-linejoin:round;stroke-miterlimit:2;" version="1.1" viewBox="0 0 512 512" width="100%" xml:space="preserve" xmlns="http://www.w3.org/2000/svg" xmlns:cc="http://creativecommons.org/ns#" xmlns:dc="http://purl.org/dc/elements/1.1/" xmlns:rdf="http://www.w3.org/1999/02/22-rdf-syntax-ns#" xmlns:serif="http://www.serif.com/" xmlns:svg="http://www.w3.org/2000/svg"><defs id="defs2797"/><g id="_43-Network" style="display:inline" transform="translate(-3072,-8192)"><g id="g1887" transform="translate(3244.79,8513.56)"><path d="m 0,-30 h -21.32 c -8.284,0 -15,6.716 -15,15 0,8.284 6.716,15 15,15 H 0 C 8.284,0 15,-6.716 15,-15 15,-23.284 8.284,-30 0,-30" id="path1885" style="fill-rule:nonzero"/></g><g id="g1891" transform="translate(0,7168.05)"><path d="m 3178.65,1285.51 h 220.77 v 90 H 3178.65 Z M 3102,1251.89 c 0,-35.09 28.55,-63.63 63.64,-63.63 H 3209 c 8.28,0 15,-6.72 15,-15 0,-60.03 48.84,-108.87 108.86,-108.87 60.03,0 108.86,48.84 108.86,108.87 0,8.28 6.72,15 15,15 h 33.64 c 35.09,0 63.64,28.54 63.64,63.64 0,28.92 -19.86,53.77 -46.65,61.3 v -42.69 c 0,-8.29 -6.72,-15 -15,-15 h -328.7 c -8.28,0 -15,6.71 -15,15 v 42.69 c -26.79,-7.53 -46.65,-32.38 -46.65,-61.31 m 375.35,123.62 h -47.93 v -90 h 47.93 z m -149.35,120 c -8.27,0 -15,-6.73 -15,-15 0,-8.27 6.73,-15 15,-15 8.27,0 15,6.73 15,15 0,8.27 -6.73,15 -15,15 m 164.35,-90 c 8.28,0 15,-6.72 15,-15 v -46.53 c 18.92,-3.45 36.3,-12.64 50,-26.65 17.18,-17.6 26.65,-40.83 26.65,-65.44 0,-51.63 -42.01,-93.63 -93.64,-93.63 h -19.45 c -7.5,-69.55 -66.55,-123.87 -138.05,-123.87 -71.5,0 -130.55,54.32 -138.05,123.87 h -29.17 c -51.63,0 -93.64,42 -93.64,93.64 0,24.6 9.47,47.83 26.65,65.43 13.7,14.01 31.08,23.19 50,26.65 v 46.53 c 0,8.28 6.72,15 15,15 H 3313 v 32.58 c -12.76,4.53 -22.89,14.66 -27.42,27.42 h -163.61 c -8.28,0 -15,6.71 -15,15 0,8.28 6.72,15 15,15 h 163.61 c 6.19,17.46 22.87,30 42.42,30 19.56,0 36.23,-12.54 42.42,-30 h 163.61 c 8.28,0 15,-6.72 15,-15 0,-8.29 -6.72,-15 -15,-15 h -163.61 c -4.53,-12.76 -14.66,-22.89 -27.42,-27.42 v -32.58 z" id="path1889" style="fill-rule:nonzero"/></g><g id="g1895" transform="translate(3365.48,8498.56)"><path d="m 0,0 c 0,-8.284 -6.716,-15 -15,-15 h -44.261 c -8.284,0 -15,6.716 -15,15 0,8.284 6.716,15 15,15 H -15 C -6.716,15 0,8.284 0,0" id="path1893" style="fill-rule:nonzero"/></g></g></svg>