<svg width="568" height="593" viewBox="0 0 568 593" fill="none" xmlns="http://www.w3.org/2000/svg">
<g clip-path="url(#clip0_35_901)">
<path d="M246.461 244.637C229.909 250.463 216.408 264.347 211.046 281.056C210.348 283.232 209.747 285.516 208.318 287.299C206.889 289.082 204.337 290.217 202.269 289.244C201.169 288.726 200.386 287.711 199.792 286.65C197.959 283.378 197.581 279.507 197.424 275.76C197.042 266.675 197.732 257.539 199.569 248.633C201.469 239.423 216.361 203.609 253.473 202.553C254.086 215.114 251.184 227.55 248.302 239.791C247.622 242.677 246.884 245.685 246.461 244.637Z" fill="#7B5FF1" stroke="#010101" stroke-width="1.5" stroke-linecap="round" stroke-linejoin="round"></path>
<path d="M311.36 267.724C320.134 282.921 321.346 302.249 314.54 318.423C313.654 320.529 312.623 322.654 312.547 324.939C312.471 327.223 313.67 329.746 315.873 330.353C317.045 330.676 318.301 330.415 319.442 329.997C322.963 328.706 325.769 326.014 328.328 323.271C334.532 316.622 339.955 309.238 344.357 301.281C348.909 293.052 360.915 256.171 333.429 231.212C324.788 240.349 318.895 251.679 313.116 262.847C311.753 265.481 310.357 268.246 311.36 267.725V267.724Z" fill="#7B5FF1" stroke="#010101" stroke-width="1.5" stroke-linecap="round" stroke-linejoin="round"></path>
<path d="M245.426 257.007C237.541 273.865 228.068 289.924 218.61 305.953C203.929 330.834 189.249 355.715 175.242 378.617C155.612 365.84 133.108 356.46 109.691 355.946C86.274 355.432 61.941 364.804 47.994 383.621C34.047 402.438 32.938 430.972 48.328 448.628C32.808 446.219 16.751 454.984 8.42502 468.302C0.0990229 481.619 -1.07098 498.626 3.07702 513.774C8.62402 534.037 23.534 551.529 42.663 560.215C61.792 568.901 77.774 568.615 96.681 559.457C100.733 572.626 110.44 577.214 119.125 581.7C133.124 588.93 149.3 593.129 164.739 589.983C180.177 586.837 194.432 575.174 197.478 559.716C206.11 577.033 225.75 586.014 244.714 589.856C257.354 592.416 270.585 593.265 283.071 590.032C307.942 583.591 327.212 559.718 328.262 534.048C355.025 534.898 370.16 521.576 374.893 497.108C379.502 473.28 355.464 451.479 334.159 450.684C342.275 446.597 353.451 428.698 338.349 403.977C328.017 387.064 303.581 377.599 284.747 379.087C289.715 345.281 294.883 324.367 307.298 278.318C288.3 268.436 271.057 264.901 245.427 257.007H245.426Z" fill="white" stroke="#010101" stroke-width="1.5" stroke-linecap="round" stroke-linejoin="round"></path>
<path d="M48.13 448.716C56.071 453.3 61.347 461.852 69.731 465.565C73.753 467.346 78.195 467.87 82.527 468.633" stroke="#010101" stroke-width="1.5" stroke-linecap="round" stroke-linejoin="round"></path>
<path d="M96.689 560.673C90.799 544.065 94.085 524.517 105.081 510.747" stroke="#010101" stroke-width="1.5" stroke-linecap="round" stroke-linejoin="round"></path>
<path d="M197.66 561.49C199.834 550.345 200.011 538.814 198.183 527.607" stroke="#010101" stroke-width="1.5" stroke-linecap="round" stroke-linejoin="round"></path>
<path d="M334.334 451.608C326.784 451.418 319.196 454.076 313.417 458.937" stroke="#010101" stroke-width="1.5" stroke-linecap="round" stroke-linejoin="round"></path>
<path d="M327.944 534.546C322.608 533.098 317.385 531.232 312.34 528.972" stroke="#010101" stroke-width="1.5" stroke-linecap="round" stroke-linejoin="round"></path>
<path d="M258.352 336.046C241.989 369.84 234.163 407.251 217.878 441.082" stroke="#010101" stroke-width="1.5" stroke-linecap="round" stroke-linejoin="round"></path>
<path d="M201.838 367.766C189.625 390.106 176.895 412.163 163.664 433.915" stroke="#010101" stroke-width="1.5" stroke-linecap="round" stroke-linejoin="round"></path>
<path d="M392.496 62.441C389.976 93.981 382.416 125.241 371.996 155.201C356.596 199.481 338.256 245.151 307.586 286.001C286.666 281.981 246.136 263.061 238.776 261.341C257.236 162.801 284.966 100.791 333.836 43.311C338.986 37.251 344.376 31.231 350.016 25.231C359.016 15.661 368.806 6.38101 380.196 0.861006C383.966 0.181006 387.746 2.72101 389.676 6.04101C391.596 9.36101 392.066 13.301 392.406 17.121C393.746 32.221 393.696 47.361 392.496 62.441Z" fill="#E3E3FF" stroke="#010101" stroke-width="1.5" stroke-linecap="round" stroke-linejoin="round"></path>
<path d="M296.257 219.037C293.234 217.874 290.051 220.657 288.47 223.484C279.041 240.354 259.867 285.404 251.897 307.631C251.198 309.581 249.082 313.734 254.151 315.728C258.065 317.268 260.064 313.319 262.468 307.851C270.473 289.644 278.978 269.937 286.983 251.731C291.546 241.352 301.31 221.567 296.258 219.037H296.257Z" fill="#7B5FF1" stroke="#010101" stroke-width="1.5" stroke-linecap="round" stroke-linejoin="round"></path>
<path d="M347.415 63.76C343.403 64.087 339.353 65.109 335.964 67.282C332.11 69.753 329.523 73.808 327.762 78.035C326.479 81.115 325.559 84.438 325.861 87.761C326.059 89.943 327.583 103.993 345.014 106.117C349.313 106.641 365.336 108.039 369.707 91.969C372.448 81.893 366.385 62.215 347.415 63.76Z" fill="white" stroke="#010101" stroke-width="1.5" stroke-linecap="round" stroke-linejoin="round"></path>
<path d="M347.605 69.937C344.758 70.169 341.884 70.895 339.479 72.436C336.744 74.19 334.908 77.067 333.658 80.067C332.747 82.253 332.095 84.611 332.309 86.969C332.449 88.518 333.531 98.488 345.901 99.996C348.952 100.368 360.323 101.36 363.425 89.956C365.37 82.805 361.068 68.841 347.605 69.937Z" stroke="#010101" stroke-width="1.5" stroke-linecap="round" stroke-linejoin="round"></path>
<path d="M392.496 62.441C371.146 55.991 352.996 49.361 333.836 43.311C338.986 37.251 344.376 31.231 350.016 25.231C359.016 15.661 368.806 6.38101 380.196 0.861006C383.966 0.181006 387.746 2.72101 389.676 6.04101C391.596 9.36101 392.066 13.301 392.406 17.121C393.746 32.221 393.696 47.361 392.496 62.441Z" fill="#7B5FF1" stroke="#010101" stroke-width="1.5" stroke-linecap="round" stroke-linejoin="round"></path>
<path d="M420.133 68.033C421.777 65.822 422.868 63.091 422.639 60.346C422.41 57.601 420.669 54.904 418.058 54.026C415.411 53.136 412.549 54.173 409.921 55.117C402.21 57.889 394.075 60.034 387.471 64.885C385.861 66.068 384.338 67.427 383.298 69.134C381.911 71.41 381.48 74.154 381.504 76.819C381.523 78.984 381.824 81.147 382.396 83.235C384.711 91.681 391.277 98.343 398.488 103.311C402.812 97.158 407.198 90.884 409.502 83.726C410.377 81.01 410.945 78.183 412.118 75.582C413.291 72.981 416.831 72.474 420.133 68.033Z" fill="#010101" stroke="#010101" stroke-width="1.5" stroke-linecap="round" stroke-linejoin="round"></path>
<path d="M395.442 83.461C394.972 83.744 394.559 84.111 394.232 84.551C393.402 85.669 392.892 87.055 392.976 88.445C393.06 89.834 393.788 91.207 394.984 91.92C396.101 92.586 397.485 92.629 398.777 92.285C398.546 96.329 398.5 100.384 398.167 104.767C400.052 106.917 402.633 108.446 405.424 109.066C408.215 109.686 411.201 109.393 414.107 108.156C414.381 105.354 414.547 102.541 414.578 99.635C418.134 98.41 421.774 96.463 423.357 93.051C424.481 90.627 424.39 87.832 424.149 85.171C423.548 78.548 422.151 71.998 419.961 65.918C417.64 66.18 415.293 66.447 413.099 67.25C410.905 68.053 405.688 69.717 404.969 76.125C404.334 81.784 405.41 86.044 405.221 86.295C405.045 86.53 401.895 86.805 401.134 86.75C400.327 83.748 398.312 81.733 395.442 83.461Z" fill="white" stroke="#010101" stroke-width="1.5" stroke-linecap="round" stroke-linejoin="round"></path>
<path d="M418.133 76.9709C418.975 78.9659 419.817 80.9609 420.845 83.0509C419.842 83.5729 418.738 83.8979 417.612 84.0009" stroke="#010101" stroke-width="1.5" stroke-linecap="round" stroke-linejoin="round"></path>
<path d="M407.868 99.562C410.239 100.027 412.707 99.993 415.064 99.464" stroke="#010101" stroke-width="1.5" stroke-linecap="round" stroke-linejoin="round"></path>
<path d="M417.767 114.53C420.897 135.385 420.21 199.936 420.149 217.614C399.031 221.062 382.259 220.461 361.363 215.851C360.624 215.688 359.847 215.5 359.297 214.981C358.729 214.445 358.497 213.643 358.406 212.867C358.055 209.88 359.422 206.988 360.76 204.294C375.975 173.659 391.561 144.387 417.767 114.53Z" fill="#FF8B37" stroke="#010101" stroke-width="1.5" stroke-linecap="round" stroke-linejoin="round"></path>
<path d="M389.482 108.089C391.599 105.957 391.915 104.761 394.096 102.171C402.109 103.287 409.621 104.369 418.518 106.394C417.496 109.062 417.981 111.369 417.43 114.53C405.427 112.206 399.895 110.78 389.482 108.089Z" fill="#7B5FF1" stroke="#010101" stroke-width="1.5" stroke-linecap="round" stroke-linejoin="round"></path>
<path d="M412.66 363.383C410.003 369.072 407.346 374.762 404.497 380.698C416.937 389.356 430.752 396.033 445.397 400.431C443.016 395.559 441.01 390.505 439.4 385.327C438.843 383.536 438.329 381.671 438.556 379.809C438.824 377.612 440.108 375.602 440.165 373.39C432.148 369.736 424.273 365.771 412.66 363.383Z" fill="white" stroke="#010101" stroke-width="1.5" stroke-linecap="round" stroke-linejoin="round"></path>
<path d="M368.565 293.44C361.55 295.787 354.696 298.616 348.068 301.9C352.667 315.607 357.266 329.315 361.864 343.022C363.455 336.859 365.047 330.697 366.638 324.534C367.17 322.472 367.719 320.373 368.854 318.571C369.989 316.769 371.828 315.281 373.951 315.113C372.943 307.228 371.391 299.412 368.564 293.439L368.565 293.44Z" fill="white" stroke="#010101" stroke-width="1.5" stroke-linecap="round" stroke-linejoin="round"></path>
<path d="M349.535 216.068C345.687 222.604 344.415 230.613 346.05 238.02C347.685 245.427 352.209 252.156 358.451 256.466C363.939 260.255 370.511 262.132 377.046 263.462C394.036 266.921 411.501 267.081 428.839 267.227C433.244 267.264 437.648 267.302 442.226 267.838C431.164 299.588 419.782 331.226 407.924 364.189C420.175 371.474 434.303 375.571 448.631 375.614C466.469 338.364 480.804 299.437 491.386 259.515C492.845 254.012 494.217 248.076 492.23 242.74C490.249 237.42 485.272 233.773 480.103 231.426C474.479 228.872 468.405 227.493 462.38 226.13C448.1 222.9 433.819 219.67 418.553 216.954C393.513 217.585 368.437 216.771 349.536 216.069L349.535 216.068Z" fill="#010101" stroke="#010101" stroke-width="1.5" stroke-linecap="round" stroke-linejoin="round"></path>
<path d="M465.21 229.524C486.553 227.162 498.041 240.873 499.619 254.644C499.922 257.284 499.861 259.994 499.13 262.549C498.3 265.451 496.623 268.069 494.54 270.253C490.139 274.867 484.112 277.506 478.256 280.029C443.759 294.89 409.262 309.752 374.865 324.876C370.926 313.438 367.48 301.83 364.26 290.555C379.943 279.645 401.307 268.582 417.612 259.717C438.343 250.924 446.813 242.561 465.21 229.524Z" fill="#010101" stroke="#010101" stroke-width="1.5" stroke-linecap="round" stroke-linejoin="round"></path>
<path d="M266.286 157.111C262.899 158.537 258.88 158.665 256.057 161.018C254.408 162.392 253.389 164.36 252.437 166.283C251.087 169.009 249.761 171.834 249.502 174.865C249.243 177.896 250.258 181.216 252.75 183.363C253.078 184.734 253.409 186.121 253.391 187.53C253.377 188.637 253.151 189.769 253.449 190.835C253.5 191.019 253.571 191.204 253.705 191.339C254.032 191.668 254.6 191.57 254.987 191.316C255.725 190.831 256.079 189.949 256.379 189.118C257.292 186.593 258.115 184.018 258.683 181.994C260.151 178.266 262.276 174.823 263.722 171.087C265.168 167.351 265.898 163.108 266.286 157.111Z" fill="white" stroke="#010101" stroke-width="1.5" stroke-linecap="round" stroke-linejoin="round"></path>
<path d="M389.124 108.089C385.498 111.701 381.691 115.13 377.198 118.881C339.165 129.521 301.663 142.06 264.642 155.974C262.348 165.126 260.28 174.335 258.929 182.805C295.203 175.162 331.347 166.901 366.262 157.56C359.212 177.092 352.528 196.756 346.074 217.594C356.088 220.392 365.641 224.602 375.412 229.523C381.166 225.506 386.972 221.443 391.695 216.253C403.823 202.926 407.295 184.094 410.27 166.322C413.4 147.624 415.031 133.425 417.768 114.529C410.232 113.529 398.472 110.563 389.125 108.088L389.124 108.089Z" fill="#7B5FF1" stroke="#010101" stroke-width="1.5" stroke-linecap="round" stroke-linejoin="round"></path>
<path d="M399.777 198.33C391.913 204.547 383.599 210.789 373.815 212.974C374.435 217.378 375.055 221.783 375.675 226.187" stroke="#010101" stroke-width="1.5" stroke-linecap="round" stroke-linejoin="round"></path>
<path d="M403.661 266.48C416.198 267.065 428.736 267.649 441.421 268.174C438.33 279.583 434.709 290.849 430.574 301.923" stroke="white" stroke-width="1.5" stroke-linecap="round" stroke-linejoin="round"></path>
<path d="M472.204 228.251C479.61 230.326 487.375 233.775 490.889 240.617C493.612 245.919 493.233 252.264 492.131 258.121C490.896 264.683 488.835 271.088 486.013 277.14" stroke="white" stroke-width="1.5" stroke-linecap="round" stroke-linejoin="round"></path>
<path d="M31.626 329.677C34.861 327.675 38.095 325.672 41.33 323.67" stroke="#010101" stroke-width="1.5" stroke-linecap="round" stroke-linejoin="round"></path>
<path d="M429.056 497.598C430.696 501.219 432.336 504.84 433.975 508.461C434.165 508.881 434.485 509.377 434.941 509.305C435.397 509.233 435.069 508.297 429.056 497.598Z" stroke="#010101" stroke-width="1.5" stroke-linecap="round" stroke-linejoin="round"></path>
<path d="M186.871 141.011C177.982 126.227 166.63 113.084 151.274 104.225C141.725 98.7161 127.697 102.025 121.252 110.969C114.988 119.661 116.609 125.905 121.272 135.551C114.685 125.92 103.994 117.778 92.381 118.911C90.657 119.079 88.919 119.462 87.43 120.348C84.057 122.355 82.586 126.631 82.832 130.549C83.078 134.467 84.735 138.137 89.549 140.779C132.348 140.779 135.347 141.012 186.872 141.012L186.871 141.011Z" fill="#E3E3FF" stroke="#010101" stroke-width="1.5" stroke-linecap="round" stroke-linejoin="round"></path>
<path d="M565.512 376.342C566.191 369.062 567.88 358.193 563.25 352.535C558.196 346.358 548.492 345.643 541.327 349.161C534.162 352.678 530.168 359.225 526.411 366.267C529.153 361.341 529.794 356.057 530.18 350.432C530.688 343.034 527.785 334.165 520.591 332.368C517.52 331.601 514.265 332.32 511.304 333.437C502.392 336.797 495.141 343.653 489.708 351.476C484.275 359.299 478.771 369.867 475.301 377.402C509.043 377.402 526.515 376.343 565.513 376.343L565.512 376.342Z" fill="#E3E3FF" stroke="#010101" stroke-width="1.5" stroke-linecap="round" stroke-linejoin="round"></path>
<path d="M504.261 430.531C502.969 430.356 501.603 430.981 500.89 432.072C500.177 433.163 500.154 434.665 500.833 435.778C502.042 437.76 505.358 437.853 506.73 435.98C508.102 434.107 507.107 430.915 504.262 430.53L504.261 430.531Z" fill="#010101"></path>
<path d="M154.044 239.072C153.121 238.947 152.145 239.393 151.636 240.173C151.127 240.952 151.11 242.025 151.595 242.82C152.459 244.236 154.827 244.302 155.807 242.964C156.787 241.626 156.076 239.346 154.044 239.071V239.072Z" fill="#010101"></path>
<path d="M521.14 168.958C520.217 168.833 519.241 169.279 518.732 170.059C518.223 170.839 518.206 171.911 518.691 172.706C519.555 174.122 521.923 174.188 522.903 172.85C523.883 171.512 523.172 169.233 521.14 168.958Z" fill="#010101"></path>
</g>
<defs>
<clipPath id="clip0_35_901">
<rect width="567.128" height="592.882" fill="white"></rect>
</clipPath>
</defs>
</svg>