<svg width="619" height="383" viewBox="0 0 619 383" fill="none" xmlns="http://www.w3.org/2000/svg">
<g clip-path="url(#clip0_35_1309)">
<path d="M546.899 343.125C557.206 324.334 570.097 306.962 585.094 291.652C590.678 285.952 596.804 280.381 604.375 277.859C606.754 277.066 609.539 276.644 611.635 278.021C614.094 279.637 614.581 283 614.626 285.942C614.934 306.273 605.47 325.317 596.234 343.431C578.474 345.397 560.558 345.955 546.9 343.125H546.899Z" fill="#55D087" stroke="#010101" stroke-width="1.5" stroke-linecap="round" stroke-linejoin="round"></path>
<path d="M607.027 280.78C593.627 301.764 580.227 322.747 566.827 343.731" stroke="#010101" stroke-width="1.5" stroke-linecap="round" stroke-linejoin="round"></path>
<path d="M506.585 344.298C514.713 327.968 520.041 310.391 527.561 293.771C535.081 277.152 545.261 261.031 560.476 250.968C563.64 248.875 567.997 247.111 570.995 249.436C572.335 250.475 573.045 252.12 573.567 253.734C576.41 262.53 575.167 272.098 573.226 281.136C568.618 302.592 560.268 323.125 556.013 344.654C537.615 344.654 530.402 344.298 506.586 344.298H506.585Z" fill="#55D087" stroke="#010101" stroke-width="1.5" stroke-linecap="round" stroke-linejoin="round"></path>
<path d="M565.848 254.075C551.998 283.28 539.521 313.137 528.471 343.512" stroke="#010101" stroke-width="1.5" stroke-linecap="round" stroke-linejoin="round"></path>
<path d="M191.5 254.5C194.3 252.1 219.333 256.833 231 259.5L219.5 282L194.5 275L202.5 262C193.5 259.5 188 257.5 191.5 254.5Z" fill="white" stroke="black" stroke-linejoin="round"></path>
<path d="M481.259 35.3331C473.521 34.1641 463.512 32.1821 463.512 32.1821C461.741 31.6571 459.663 30.3861 460.004 28.5711C460.372 26.6191 462.984 26.3481 464.96 26.1391C469.149 25.6951 470.385 25.3861 472.075 24.4011C476.013 18.7521 479.213 14.1281 484.822 10.1331C486.507 8.93308 486.95 1.75008 489.015 1.62608C490.848 1.51608 495.088 7.71808 496.387 9.01708C503.938 16.5681 511.037 29.0891 515.327 36.9671C518.763 43.2761 526.741 84.5101 497.714 64.2141C486.155 56.1321 485.174 40.4601 481.258 35.3341L481.259 35.3331Z" fill="white" stroke="#010101" stroke-width="1.5" stroke-linecap="round" stroke-linejoin="round"></path>
<path d="M390.778 195.006C411.795 193.231 432.774 191.005 453.433 187.851C459.834 198.391 540.361 325.06 500.177 328.325C471.495 330.656 438.098 333.576 409.416 335.906C407.155 336.09 404.724 336.237 402.777 335.072C401.094 334.065 400.085 332.257 399.178 330.519C383.851 301.147 375.86 267.981 376.128 234.852C376.236 221.482 377.831 207.618 390.778 195.006Z" fill="white" stroke="#010101" stroke-width="1.5" stroke-linecap="round" stroke-linejoin="round"></path>
<path d="M500.177 328.325C504.313 327.842 508.894 328.162 513.039 328.566C517.184 328.97 521.353 330.337 524.436 333.137C526.452 334.968 527.989 337.893 526.857 340.369C525.662 342.985 522.302 343.624 519.441 343.914C483.672 347.542 447.783 349.842 411.903 352.141C407.91 352.397 403.906 352.653 399.909 352.453C398.507 352.383 396.881 352.117 396.206 350.887C395.837 350.215 395.852 349.404 395.911 348.639C396.154 345.481 397.032 342.273 399.036 339.82C401.04 337.367 404.322 335.81 408.5 336.181C424.816 334.276 487.297 329.827 500.176 328.323L500.177 328.325Z" fill="#010101" stroke="#010101" stroke-width="1.5" stroke-linecap="round" stroke-linejoin="round"></path>
<path d="M470.474 16.7451C470.474 16.7451 423.393 36.1871 384.153 52.2351C385.237 54.6531 386.32 57.0711 387.404 59.4901C427.403 43.1321 434.542 39.2321 474.84 23.6241C472.263 20.7721 472.76 19.8981 470.474 16.7451Z" fill="#010101" stroke="#010101" stroke-width="1.5" stroke-linecap="round" stroke-linejoin="round"></path>
<path d="M470.871 16.6111C479.764 12.0381 488.931 7.99606 498.305 4.51306C499.522 7.09406 500.5 9.78906 501.221 12.5501C499.633 12.4991 498.08 12.9741 496.569 13.4651C488.742 16.0101 481.104 19.1341 473.737 22.8031C472.703 20.2731 471.669 17.7431 470.871 16.6111Z" fill="#010101" stroke="#010101" stroke-width="1.5" stroke-linecap="round" stroke-linejoin="round"></path>
<path d="M481.42 1.57102C477.107 2.91202 470.757 6.67002 468.167 9.08102C467.181 9.99902 465.86 10.799 465.162 11.983C464.462 13.171 464.474 14.594 464.611 15.937C465.012 19.868 464.573 21.67 466.725 25.097C469.644 29.747 474.747 27.868 473.621 24.209C472.207 19.615 472.462 17.658 470.962 13.994C471.972 16.672 471.58 16.998 472.121 19.24C472.662 21.482 474.498 26.395 476.574 26.877C482.277 28.201 479.393 21.846 479.194 18.418C478.995 14.996 478.25 12.976 477.608 9.59902C478.153 12.435 478.688 13.819 479.233 16.654C479.476 17.917 480.219 19.299 480.949 20.397C482.734 23.082 485.954 23.416 485.954 17.543C485.954 13.492 485.498 11.52 483.811 7.27402C484.223 9.75002 485.592 10.832 486.411 13.223C486.89 14.623 491.452 20.289 492.646 14.788C493.345 11.568 492.299 7.59002 490.79 3.93902C489.227 0.159023 485.622 0.263023 481.422 1.56902L481.42 1.57102Z" fill="white" stroke="#010101" stroke-width="1.5" stroke-linecap="round" stroke-linejoin="round"></path>
<path d="M232.531 256.247C258.306 265.306 281.133 276.724 307.957 286.743C318.344 266.932 331.68 244.763 342.067 224.952C344.595 220.13 347.163 215.251 350.816 211.214C361.724 199.16 379.577 193.912 395.755 193.874C409.459 228.235 418.173 270.811 429.512 306.218C422.483 317.852 419.58 324.769 412.551 336.403C406.191 346.93 399.777 357.528 391.124 366.215C383.159 333.314 375.193 300.414 366.511 267.457C359.262 283.252 349.95 298.099 338.888 311.503C333.801 317.667 328.024 323.744 320.479 326.379C310.391 329.903 299.268 326.597 289.388 322.525C265.125 312.523 242.467 300.321 220.571 285.854C219.979 285.463 219.346 285.018 219.146 284.338C218.933 283.615 219.275 282.857 219.608 282.181C222.69 275.927 226.362 267.316 232.532 256.248L232.531 256.247Z" fill="#7B5FF1" stroke="#010101" stroke-width="1.5" stroke-linecap="round" stroke-linejoin="round"></path>
<path d="M474.057 187.769C466.511 188.716 461.561 188.455 451.309 188.784C451.435 226.337 451.562 263.89 451.273 302.087C482.072 320.37 512.871 338.652 543.121 356.027C529.416 309.18 515.064 262.522 500.969 217.838C517.252 195.223 535.548 170.053 549.795 144.211C555.739 133.429 561.353 121.545 559.853 109.325C558.774 100.535 555.889 93.827 551.337 86.23C538.415 64.662 525.493 43.094 511.885 21.791C500.708 26.467 489.994 32.247 480.492 40.599C492.667 66.561 504.842 92.522 517.575 118.384C502.277 143.407 481.226 176.045 474.058 187.77L474.057 187.769Z" fill="#7B5FF1" stroke="#010101" stroke-width="1.5" stroke-linecap="round" stroke-linejoin="round"></path>
<path d="M363.825 254.156C364.961 258.52 365.859 262.945 366.515 267.406" stroke="#010101" stroke-width="1.5" stroke-linecap="round" stroke-linejoin="round"></path>
<path d="M387.634 201.174C384.927 208.093 382.219 215.012 379.512 221.931C384.631 224.885 389.75 227.839 394.869 230.793C392.036 237.012 389.624 243.423 387.655 249.968C397.137 255.307 406.358 261.11 415.275 267.348" stroke="#010101" stroke-width="1.5" stroke-linecap="round" stroke-linejoin="round"></path>
<path d="M455.195 193.875C460.38 201.698 466.08 209.18 472.244 216.257C467.988 220.688 463.096 224.506 457.766 227.56C462.255 231.089 466.503 234.924 470.471 239.03C465.01 244.288 460.58 250.612 457.505 257.542" stroke="#010101" stroke-width="1.5" stroke-linecap="round" stroke-linejoin="round"></path>
<path d="M395.262 135.649C392.93 126.844 394.261 117.127 398.877 109.274C399.811 107.684 401.71 105.975 403.233 107.016C404.729 108.039 404.238 110.9 405.937 111.528C406.421 111.707 406.956 111.631 407.467 111.561C413.896 110.678 420.429 111.021 426.892 111.598C435.392 112.357 444.863 114.095 449.766 121.08C453.266 126.066 453.546 132.628 452.827 138.677C451.511 149.74 447.233 160.437 440.556 169.356C437.395 163.293 432.286 158.265 426.174 155.201C421.267 152.741 415.797 151.539 410.936 148.989C404.559 145.644 399.438 139.967 395.262 135.649Z" fill="#010101" stroke="#010101" stroke-width="1.5" stroke-linecap="round" stroke-linejoin="round"></path>
<path d="M408.919 175.172C408.262 181.894 407.793 188.634 407.513 195.382C418.675 196.987 430.129 196.543 441.133 194.077C440.938 182.723 440.539 171.372 439.938 160.032C444.515 158.703 447.287 153.685 447.296 148.919C447.303 145.153 445.461 140.904 441.143 140.684C439.726 140.612 438.317 141.069 437.147 141.872C434.529 143.67 433.346 146.64 432.961 149.671C432.872 150.375 432.281 150.905 431.572 150.922L428.473 150.995C427.689 151.013 427.036 150.407 427 149.624C426.767 144.52 426.206 135.453 425.254 131.736C424.526 128.894 423.269 125.532 420.381 125.015C418.054 124.599 415.24 126.303 411.185 126.303C406.998 126.303 405.171 124.081 401.183 125.048C397.979 125.825 394.928 129.222 394.374 132.472C392.493 143.517 390.507 158.235 394.335 165.736C397.011 170.98 401.432 175.962 408.916 175.174L408.919 175.172Z" fill="white" stroke="#010101" stroke-width="1.5" stroke-linecap="round" stroke-linejoin="round"></path>
<path d="M402.654 142.8C401.433 146.459 399.928 150.022 398.156 153.448C399.83 154.552 401.976 154.541 403.98 154.491" stroke="#010101" stroke-width="1.5" stroke-linecap="round" stroke-linejoin="round"></path>
<path d="M422.488 206.384C424.313 221.932 425.688 237.533 426.612 253.161" stroke="#010101" stroke-width="1.5" stroke-linecap="round" stroke-linejoin="round"></path>
<path d="M427.57 193.442C427.712 189.117 427.853 184.791 427.995 180.466C434.427 178.575 440.859 176.683 447.291 174.792C447.434 179.957 447.805 185.116 448.403 190.248C441.949 191.567 435.457 192.697 427.571 193.441L427.57 193.442Z" fill="white" stroke="#010101" stroke-width="1.5" stroke-linecap="round" stroke-linejoin="round"></path>
<path d="M418.281 194.294C416.855 190.08 414.632 186.137 411.764 182.736C411.597 182.538 411.415 182.333 411.168 182.255C410.912 182.174 410.636 182.245 410.377 182.316C406.878 183.276 403.378 184.236 399.879 185.196C401.189 189.094 402.917 192.836 404.64 196.569C404.702 196.704 404.779 196.853 404.919 196.902C405.026 196.939 405.144 196.909 405.253 196.878C408.897 195.858 412.541 194.839 418.28 194.293L418.281 194.294Z" fill="white" stroke="#010101" stroke-width="1.5" stroke-linecap="round" stroke-linejoin="round"></path>
<path d="M428.096 199.984C433.302 200.825 439.156 201.301 444.428 201.405C444.86 201.414 445.35 201.396 445.636 201.072C445.843 200.839 445.885 200.506 445.914 200.196C446.384 195.063 445.621 189.823 443.72 185.032C443.372 184.155 442.388 183.701 441.509 184.042C435.813 186.251 430.302 189.002 424.877 192.479C422.168 191.813 419.163 192.482 416.625 194.516C409.286 193.142 405.284 192.578 399.859 190.627C399.297 190.425 398.706 190.189 398.121 190.312C396.689 190.612 396.525 192.572 396.698 194.025C397.325 199.288 397.951 204.551 398.578 209.814C398.611 210.087 398.647 210.37 398.794 210.603C399.297 211.397 400.516 211.014 401.332 210.547C406.559 207.555 412.67 205.152 418.045 202.273C420.06 203.263 426.943 204.84 428.096 199.984Z" fill="#FF8B37" stroke="#010101" stroke-width="1.5" stroke-linecap="round" stroke-linejoin="round"></path>
<path d="M416.592 194.199C416.097 195.458 415.888 196.829 415.988 198.178C416.094 199.618 416.626 201.133 417.83 201.931" fill="#FF8B37"></path>
<path d="M416.592 194.199C416.097 195.458 415.888 196.829 415.988 198.178C416.094 199.618 416.626 201.133 417.83 201.931" stroke="#010101" stroke-width="1.5" stroke-linecap="round" stroke-linejoin="round"></path>
<path d="M425.132 192.974C427.473 194.295 428.898 197.082 428.597 199.753Z" fill="#FF8B37"></path>
<path d="M425.132 192.974C427.473 194.295 428.898 197.082 428.597 199.753" stroke="#010101" stroke-width="1.5" stroke-linecap="round" stroke-linejoin="round"></path>
<path d="M109.323 310.109C108.589 323.34 105.614 350.821 102.902 369.363C122.87 376.631 143.502 382.528 164.719 381.364C187.553 380.111 196.799 377.5 208.802 367.984C200.041 341.861 196.013 318.497 192.638 308.433C166.318 308.511 132.14 307.163 109.322 310.108L109.323 310.109Z" fill="#010101" stroke="#010101" stroke-width="1.5" stroke-linecap="round" stroke-linejoin="round"></path>
<path d="M234.855 160.238C227.539 118.183 216.482 71.5011 205.264 30.3151C146.979 33.2571 87.949 37.4501 29.017 42.7281C40.258 88.3741 49.745 133.311 60.136 178.323C106.722 174.676 219.183 164.427 234.855 160.238Z" fill="white" stroke="#010101" stroke-width="1.5" stroke-linecap="round" stroke-linejoin="round"></path>
<path d="M192.639 308.433C186.552 309.783 180.507 311.327 174.347 312.223C165.553 313.502 156.621 313.448 147.74 313.149C135.267 312.73 122.811 311.834 109.323 310.108C109.515 300.663 111.15 291.313 111.267 283.28C136.415 282.251 161.564 281.223 186.364 280.085C188.524 289.494 190.684 298.903 192.639 308.433Z" fill="#FF8B37" stroke="#010101" stroke-width="1.5" stroke-linecap="round" stroke-linejoin="round"></path>
<path d="M148.766 133.262C147.097 132.254 145.428 131.246 143.759 130.239C156.005 105.677 168.25 81.115 179.147 57.254C181.514 58.043 183.88 58.831 186.895 60.198C173.297 84.428 160.942 109.356 148.766 133.263V133.262Z" fill="#FF8B37" stroke="#010101" stroke-width="1.5" stroke-linecap="round" stroke-linejoin="round"></path>
<path d="M192.036 96.237C188.175 96.033 184.352 98.002 181.963 101.041C179.574 104.08 178.56 108.078 178.811 111.936C179.128 116.811 181.615 121.706 185.888 124.074C189.308 125.969 193.498 126.084 197.293 125.145C199.245 124.662 201.174 123.891 202.674 122.552C204.695 120.747 205.747 118.09 206.339 115.446C207.408 110.68 207.047 105.262 203.91 101.519C200.731 97.726 195.476 96.418 192.036 96.237Z" fill="#FF8B37" stroke="#010101" stroke-width="1.5" stroke-linecap="round" stroke-linejoin="round"></path>
<path d="M160.835 259.273C142.445 259.754 124.086 261.42 105.91 264.256C98.906 265.349 91.5509 266.79 86.2099 271.452C83.8399 273.521 81.885 276.833 83.16 279.709C84.25 282.167 87.1649 283.155 89.7829 283.767C102.152 286.661 114.95 287.06 127.647 287.446C152.96 288.216 178.038 288.053 202.665 282.154C207.678 280.953 214.126 279.383 214.786 274.27C215.162 271.357 213.547 268.459 211.276 266.597C209.004 264.735 206.155 263.741 203.331 262.936C188.99 258.846 173.868 258.931 160.835 259.272V259.273Z" fill="#010101" stroke="#010101" stroke-width="1.5" stroke-linecap="round" stroke-linejoin="round"></path>
<path d="M136.508 269.177C129.772 269.466 122.943 269.877 116.559 272.044C115.088 272.543 113.448 273.364 113.155 274.889C112.899 276.22 113.867 277.544 115.08 278.148C116.293 278.752 117.698 278.804 119.053 278.844C138.774 279.425 158.681 279.992 178.065 276.311C179.358 276.066 180.688 275.784 181.765 275.029C182.842 274.274 183.609 272.918 183.28 271.645C182.83 269.905 180.761 269.226 178.996 268.89C172.926 267.733 146.951 268.728 136.509 269.176L136.508 269.177Z" fill="white" stroke="#010101" stroke-width="1.5" stroke-linecap="round" stroke-linejoin="round"></path>
<path d="M193.28 102.419C190.012 102.419 188.907 103.426 187.747 105.285C187.117 106.296 186.934 107.533 186.77 108.729C186.57 110.185 186.377 111.659 186.522 113.122C186.667 114.585 187.184 116.058 188.211 117.057C189.003 117.828 190.035 118.264 191.065 118.601C192.994 119.233 195.204 119.542 196.949 118.471C198.793 117.339 199.605 114.978 199.894 112.754C200.214 110.297 200.029 107.651 198.732 105.58C197.435 103.509 194.824 102.419 193.28 102.419Z" fill="white" stroke="#010101" stroke-width="1.5" stroke-linecap="round" stroke-linejoin="round"></path>
<path d="M140.747 57.268C136.886 57.064 133.063 59.033 130.674 62.072C128.285 65.111 127.271 69.109 127.522 72.967C127.839 77.842 130.326 82.737 134.599 85.105C138.019 87 142.209 87.115 146.004 86.176C147.956 85.693 149.885 84.922 151.385 83.583C153.406 81.778 154.458 79.121 155.05 76.477C156.119 71.711 155.758 66.293 152.621 62.55C149.442 58.757 144.187 57.449 140.747 57.268Z" fill="#FF8B37" stroke="#010101" stroke-width="1.5" stroke-linecap="round" stroke-linejoin="round"></path>
<path d="M136.459 66.317C135.811 67.316 135.646 68.565 135.482 69.761C135.282 71.217 135.089 72.691 135.234 74.154C135.379 75.617 135.896 77.09 136.923 78.089C137.715 78.86 138.747 79.296 139.777 79.633C141.706 80.265 143.916 80.574 145.661 79.503C147.505 78.371 148.317 76.01 148.606 73.786C148.926 71.329 148.741 68.683 147.444 66.612C146.147 64.541 140.081 60.74 136.46 66.317H136.459Z" fill="white" stroke="#010101" stroke-width="1.5" stroke-linecap="round" stroke-linejoin="round"></path>
<path d="M112.94 100.622C107.615 101.436 102.29 102.249 96.965 103.063C93.653 103.569 90.185 104.139 87.527 106.178C84.868 108.217 83.405 112.233 85.273 115.015C87.106 117.745 90.953 118 94.241 117.977C101.93 117.922 109.685 117.861 117.194 116.209C119.849 115.625 122.698 114.672 124.128 112.36C126.071 109.218 124.307 104.783 121.17 102.831C118.034 100.879 114.042 100.906 112.94 100.622Z" stroke="#010101" stroke-width="1.5" stroke-linecap="round" stroke-linejoin="round"></path>
<path d="M92.21 112.4C93.32 111.795 94.15 110.793 95.12 109.983C96.091 109.173 97.364 108.527 98.587 108.849C99.844 109.181 100.691 110.442 101.947 110.778C103.811 111.277 105.487 109.597 107.321 108.998C110.091 108.094 113.251 109.711 115.976 108.68" stroke="#010101" stroke-width="1.5" stroke-linecap="round" stroke-linejoin="round"></path>
<path d="M70.2371 160.238C71.6681 154.166 73.1541 147.963 76.5221 142.712C77.9531 140.481 79.9391 138.321 82.5581 137.913C83.0531 137.836 83.5801 137.829 84.0321 138.044C84.5501 138.29 84.8981 138.788 85.1931 139.28C88.2531 144.386 88.4491 151.305 93.0211 155.117C93.6931 155.677 94.4821 156.161 95.3551 156.21C96.9541 156.301 98.2731 154.924 98.9651 153.479C99.6581 152.034 99.9831 150.408 100.891 149.088C101.799 147.768 103.623 146.838 105.011 147.638C105.662 148.013 106.08 148.688 106.665 149.159C108.104 150.319 110.184 150.043 112.001 149.706C114.64 149.217 117.279 148.727 119.918 148.238" stroke="#010101" stroke-width="1.5" stroke-linecap="round" stroke-linejoin="round"></path>
<path d="M46.314 59.5751C65.719 59.1741 85.107 57.8911 104.396 55.7321" stroke="#010101" stroke-width="1.5" stroke-linecap="round" stroke-linejoin="round"></path>
<path d="M46.74 75.324C67.095 73.746 87.449 72.167 107.804 70.589" stroke="#010101" stroke-width="1.5" stroke-linecap="round" stroke-linejoin="round"></path>
<path d="M49.3199 90.209C61.6389 90.18 73.9559 89.509 86.2049 88.199" stroke="#010101" stroke-width="1.5" stroke-linecap="round" stroke-linejoin="round"></path>
<path d="M251.521 108.755C234.404 110.87 215.429 126.153 209.958 136.63C207.817 140.73 206.597 145.335 205.841 149.981C203.277 165.74 206.403 183.212 216.614 194.702C221.398 200.086 227.491 203.94 233.915 206.602C240.208 209.21 246.904 210.73 253.636 210.763C269.354 210.841 284.912 202.329 294.258 188.538C303.604 174.747 306.506 156.02 301.835 139.643C298.858 129.205 285.972 104.499 251.521 108.755Z" fill="#E3E3FF" stroke="#010101" stroke-width="1.5" stroke-linecap="round" stroke-linejoin="round"></path>
<path d="M236.133 150.95C250.72 151.231 265.274 153.247 279.389 156.94C277.783 167.254 276.789 177.398 275.89 187.913C275.811 188.842 275.003 189.537 274.073 189.464C265.444 188.79 238.77 184.699 226.462 182.38C225.573 182.212 224.977 181.385 225.101 180.489C226.433 170.882 228.236 160.565 229.43 151.051C231.658 150.877 233.888 150.906 236.133 150.95Z" fill="#7B5FF1" stroke="#010101" stroke-width="1.5" stroke-linecap="round" stroke-linejoin="round"></path>
<path d="M251.352 153.109C250.438 163.726 249.247 174.319 247.779 184.873" stroke="#010101" stroke-width="1.5" stroke-linecap="round" stroke-linejoin="round"></path>
<path d="M259.324 154.235C256.944 164.972 255.694 175.96 255.601 186.958" stroke="#010101" stroke-width="1.5" stroke-linecap="round" stroke-linejoin="round"></path>
<path d="M283.768 149.704C283.871 148.95 283.352 148.258 282.598 148.154C265.289 145.749 247.471 143.094 230.311 140.944C229.683 140.865 229.097 141.246 228.896 141.846C228.351 143.474 227.511 147.526 227.03 149.947C226.824 150.984 227.54 151.973 228.589 152.108C235.839 153.041 273.369 158.042 280.707 159.02C281.419 159.115 282.074 158.646 282.225 157.944C282.639 156.03 283.414 152.307 283.769 149.703L283.768 149.704Z" fill="white" stroke="#010101" stroke-width="1.5" stroke-linecap="round" stroke-linejoin="round"></path>
<path d="M257.226 144.778C258.414 141.194 259.722 137.498 262.353 134.789C264.246 132.84 266.767 131.513 269.445 131.055C271.03 130.784 272.709 130.822 274.185 131.46C275.661 132.098 276.902 133.404 277.188 134.986C277.471 136.549 275.914 138.853 274.933 140.102C272.108 143.699 267.159 144.676 262.645 145.408" stroke="#010101" stroke-width="1.5" stroke-linecap="round" stroke-linejoin="round"></path>
<path d="M254.511 144.661C253.766 141.933 253.809 138.494 253.241 135.724C252.673 132.954 251.632 130.15 249.533 128.254C248.027 126.894 245.851 126.086 243.932 126.745C242.379 127.278 241.246 128.686 240.686 130.229C239.618 133.174 239.261 137.476 243.026 140.07C245.051 141.465 246.987 143.496 254.511 144.662V144.661Z" stroke="#010101" stroke-width="1.5" stroke-linecap="round" stroke-linejoin="round"></path>
<path d="M255.542 120.731C255.982 128.535 254.665 137.531 255.871 144.661C256.207 139.048 259.589 132.35 262.645 127.63" stroke="#010101" stroke-width="1.5" stroke-linecap="round" stroke-linejoin="round"></path>
<path d="M146.562 250.477C143.908 241.787 141.157 233.067 136.951 225.013C132.745 216.959 126.972 209.531 119.322 204.628" stroke="#010101" stroke-width="1.5" stroke-linecap="round" stroke-linejoin="round"></path>
<path d="M169.027 247.9C171.095 230.705 177.689 214.075 187.967 200.135" stroke="#010101" stroke-width="1.5" stroke-linecap="round" stroke-linejoin="round"></path>
<path d="M155.347 210.764C154.179 201.573 151.765 192.542 148.192 183.994" stroke="#010101" stroke-width="1.5" stroke-linecap="round" stroke-linejoin="round"></path>
<path d="M15.571 237.938C24.907 234.033 32.462 226.07 35.868 216.54C36.595 220.981 37.346 225.496 39.328 229.536C41.31 233.576 44.74 237.146 49.118 238.187C43.403 243.815 39.536 251.29 38.244 259.206C36.366 254.48 34.42 249.649 31.032 245.857C26.811 241.132 20.448 238.401 15.571 237.937V237.938Z" stroke="#010101" stroke-width="1.5" stroke-linecap="round" stroke-linejoin="round"></path>
<path d="M272.226 29.535C280.754 26.564 287.479 18.907 289.324 10.066C289.945 14.404 290.623 18.825 292.611 22.73C294.599 26.635 299.692 29.119 304.031 29.733C294.927 32.805 290.542 42.029 288.23 49.419C286.156 41.995 279.06 30.462 272.225 29.535H272.226Z" stroke="#010101" stroke-width="1.5" stroke-linecap="round" stroke-linejoin="round"></path>
<path d="M409.131 175.225C412.412 175.213 415.522 173.817 418.414 172.266" stroke="#010101" stroke-width="1.5" stroke-linecap="round" stroke-linejoin="round"></path>
<path d="M384.266 52.2731C372.839 57.0051 365.535 59.7721 353.654 64.6931C354.376 67.2431 355.22 69.1681 356.182 71.6371C368.472 66.5471 376.851 63.5701 387.214 59.2781C385.832 57.2371 384.932 54.8711 384.266 52.2731Z" fill="white" stroke="#010101" stroke-width="1.5" stroke-linecap="round" stroke-linejoin="round"></path>
<path d="M0.75 182.599C2.985 182.971 5.219 183.344 7.454 183.716" stroke="#010101" stroke-width="1.5" stroke-linecap="round" stroke-linejoin="round"></path>
<path d="M585.912 6.74902C583.611 8.96102 581.309 11.172 579.008 13.384" stroke="#010101" stroke-width="1.5" stroke-linecap="round" stroke-linejoin="round"></path>
<path d="M164.373 3.13007C163.208 3.49607 162.628 5.03807 163.193 6.12107C163.757 7.20407 165.262 7.63407 166.355 7.08907C167.439 6.54907 168.004 5.10407 167.487 4.00907C166.97 2.91307 165.542 2.76307 164.373 3.13007Z" fill="#010101" stroke="#010101" stroke-width="1.5" stroke-linecap="round" stroke-linejoin="round"></path>
<path d="M614.505 209.882C613.34 210.248 612.76 211.79 613.325 212.873C613.889 213.956 615.394 214.386 616.487 213.841C617.571 213.301 618.136 211.856 617.619 210.761C617.102 209.665 615.674 209.515 614.505 209.882Z" fill="#010101" stroke="#010101" stroke-width="1.5" stroke-linecap="round" stroke-linejoin="round"></path>
<path d="M352.499 368.51C351.626 368.784 351.192 369.939 351.615 370.75C352.038 371.561 353.164 371.883 353.983 371.475C354.795 371.07 355.218 369.989 354.83 369.168C354.442 368.347 353.374 368.235 352.499 368.51Z" fill="#010101" stroke="#010101" stroke-width="1.5" stroke-linecap="round" stroke-linejoin="round"></path>
</g>
<defs>
<clipPath id="clip0_35_1309">
<rect width="618.563" height="382.261" fill="white"></rect>
</clipPath>
</defs>
</svg>