<svg id="Layer_2" data-name="Layer 2" xmlns="http://www.w3.org/2000/svg" viewBox="0 0 995.408 800.988">
  <g id="Layer_2-2" data-name="Layer 2">
    <g>
      <g>
        <polygon points="285.941 691.828 148.144 691.828 148.144 512.242 259.583 512.242 285.941 539.811 285.941 691.828" fill="#292a2e" opacity=".1"></polygon>
        <polygon points="259.583 512.242 259.583 539.401 285.941 539.811 259.583 512.242" fill="#292a2e" opacity=".1"></polygon>
        <path d="m226.454,583.222v8.49c0,3.844-3.116,6.96-6.96,6.96h-84.681c-3.844,0-6.96,3.116-6.96,6.96v113.365c0,3.844,3.116,6.96,6.96,6.96h164.458c3.844,0,6.96-3.116,6.96-6.96v-28.219s0-92.105,0-92.105v-15.449c0-3.844-3.116-6.96-6.96-6.96h-65.857c-3.844,0-6.96,3.116-6.96,6.96Z" fill="#fff"></path>
        <path d="m226.454,583.222v8.49c0,3.844-3.116,6.96-6.96,6.96h-84.681c-3.844,0-6.96,3.116-6.96,6.96v113.365c0,3.844,3.116,6.96,6.96,6.96h164.458c3.844,0,6.96-3.116,6.96-6.96v-28.219s0-92.105,0-92.105v-15.449c0-3.844-3.116-6.96-6.96-6.96h-65.857c-3.844,0-6.96,3.116-6.96,6.96Z" fill="#292a2e" opacity=".05"></path>
      </g>
      <g>
        <polygon points="461.929 256.351 324.133 256.351 324.133 76.765 435.572 76.765 461.929 104.334 461.929 256.351" fill="#292a2e" opacity=".1"></polygon>
        <polygon points="435.572 76.765 435.572 103.924 461.929 104.334 435.572 76.765" fill="#292a2e" opacity=".1"></polygon>
        <path d="m402.443,147.745v8.49c0,3.844-3.116,6.96-6.96,6.96h-84.681c-3.844,0-6.96,3.116-6.96,6.96v113.365c0,3.844,3.116,6.96,6.96,6.96h164.458c3.844,0,6.96-3.116,6.96-6.96v-28.219s0-92.105,0-92.105v-15.449c0-3.844-3.116-6.96-6.96-6.96h-65.857c-3.844,0-6.96,3.116-6.96,6.96Z" fill="#fff"></path>
        <path d="m402.443,147.745v8.49c0,3.844-3.116,6.96-6.96,6.96h-84.681c-3.844,0-6.96,3.116-6.96,6.96v113.365c0,3.844,3.116,6.96,6.96,6.96h164.458c3.844,0,6.96-3.116,6.96-6.96v-28.219s0-92.105,0-92.105v-15.449c0-3.844-3.116-6.96-6.96-6.96h-65.857c-3.844,0-6.96,3.116-6.96,6.96Z" fill="#292a2e" opacity=".05"></path>
      </g>
      <g>
        <polygon points="973.96 641.613 836.164 641.613 836.164 462.028 947.603 462.028 973.96 489.596 973.96 641.613" fill="#292a2e" opacity=".1"></polygon>
        <polygon points="947.603 462.028 947.603 489.187 973.96 489.596 947.603 462.028" fill="#292a2e" opacity=".1"></polygon>
        <path d="m914.474,533.007v8.49c0,3.844-3.116,6.96-6.96,6.96h-84.681c-3.844,0-6.96,3.116-6.96,6.96v113.365c0,3.844,3.116,6.96,6.96,6.96h164.458c3.844,0,6.96-3.116,6.96-6.96v-28.219s0-92.105,0-92.105v-15.449c0-3.844-3.116-6.96-6.96-6.96h-65.857c-3.844,0-6.96,3.116-6.96,6.96Z" fill="#fff"></path>
        <path d="m914.474,533.007v8.49c0,3.844-3.116,6.96-6.96,6.96h-84.681c-3.844,0-6.96,3.116-6.96,6.96v113.365c0,3.844,3.116,6.96,6.96,6.96h164.458c3.844,0,6.96-3.116,6.96-6.96v-28.219s0-92.105,0-92.105v-15.449c0-3.844-3.116-6.96-6.96-6.96h-65.857c-3.844,0-6.96,3.116-6.96,6.96Z" fill="#292a2e" opacity=".05"></path>
      </g>
      <g>
        <path d="m948.219,108.209c3.559-21.717-.679-44.033-11.972-62.942-12.72-21.33-32.919-36.402-56.878-42.444-6.077-1.517-12.284-2.423-18.462-2.697V.036h-31.755v4.296c-22.818,7.227-41.657,22.759-53.205,43.858-7.589-4.989-16.406-7.62-25.572-7.62-1.431,0-2.922.071-4.34.206h-21.455l-7.012,13.232-.155.15c-.206.199-.412.398-.611.602-7.225,7.401-11.868,17.111-13.128,27.419-36.932,2.646-66.431,33.69-67.317,71.032-.448,19.446,6.653,37.94,19.997,52.075,13.398,14.102,31.422,22.116,50.772,22.565l228.162.029c33.15,0,60.119-27.16,60.119-60.545,0-28.914-19.356-53.094-47.19-59.127Z" fill="#292a2e"></path>
        <g>
          <path d="m911.776,226.917c32.611,0,59.154-26.721,59.154-59.58,0-28.834-19.889-52.853-47.331-58.373,3.798-21.805-.243-44.028-11.694-63.203-12.593-21.115-32.568-36.021-56.284-42.001-7.31-1.826-14.778-2.76-22.231-2.76-33.939,0-64.765,18.844-80.614,48.584-7.596-5.247-16.548-8.049-25.915-8.049-12.465,0-24.158,4.916-32.882,13.9-7.296,7.475-11.865,17.292-12.95,27.656-36.552,2.199-66.336,32.816-67.221,70.145-.443,19.218,6.582,37.459,19.732,51.387,13.193,13.885,30.955,21.82,50.073,22.265l228.162.029Z" fill="#fff"></path>
          <path d="m911.776,227.917l-228.162-.029c-19.36-.451-37.393-8.468-50.798-22.576-13.352-14.142-20.455-32.644-20.007-52.1.886-37.352,30.384-68.404,67.321-71.063,1.266-10.306,5.91-20.012,13.134-27.412,8.893-9.157,20.825-14.201,33.598-14.201,9.159,0,17.972,2.626,25.56,7.604,16.29-29.725,47.211-48.14,80.969-48.14,7.498,0,15.059.938,22.473,2.789,23.969,6.044,44.176,21.122,56.9,42.459,11.292,18.907,15.532,41.218,11.981,62.934,27.834,6.049,47.186,30.235,47.186,59.155,0,33.404-26.985,60.58-60.154,60.58Zm-184.914-185.382c-12.228,0-23.65,4.828-32.164,13.596-7.108,7.283-11.608,16.894-12.674,27.064l-.088.843-.846.051c-36.3,2.185-65.414,32.567-66.281,69.17-.437,18.926,6.474,36.924,19.459,50.678,13.033,13.717,30.567,21.514,49.369,21.951l228.139.029c32.066,0,58.154-26.279,58.154-58.58,0-28.282-19.134-51.883-46.529-57.393l-.955-.192.167-.96c3.752-21.543-.355-43.746-11.566-62.519-12.451-20.878-32.223-35.632-55.67-41.544-7.254-1.811-14.651-2.729-21.986-2.729-33.384,0-63.935,18.414-79.73,48.056l-.528.99-.923-.638c-7.457-5.15-16.222-7.873-25.347-7.873Z" fill="#292a2e"></path>
        </g>
      </g>
      <g>
        <g>
          <rect x="671.418" y="159.4" width="100.473" height="640.271" fill="#262626"></rect>
          <path d="m772.89,800.672h-102.473V158.4h102.473v642.271Zm-100.473-2h98.473V160.4h-98.473v638.271Z" fill="#292a2e"></path>
        </g>
        <g>
          <rect x="357.578" y="159.4" width="313.84" height="640.271" transform="translate(1028.995 959.072) rotate(180)" fill="#fff"></rect>
          <path d="m672.417,800.672h-315.84V158.4h315.84v642.271Zm-313.84-2h311.84V160.4h-311.84v638.271Z" fill="#292a2e"></path>
        </g>
        <g>
          <rect x="380.86" y="185.152" width="267.274" height="59.97" fill="#367cff"></rect>
          <g fill="none" opacity=".5">
            <rect x="380.86" y="185.152" width="267.274" height="59.97" fill="#fff"></rect>
          </g>
          <path d="m648.135,246.122h-267.274c-.553,0-1-.447-1-1v-59.97c0-.553.447-1,1-1h267.274c.553,0,1,.447,1,1v59.97c0,.553-.447,1-1,1Zm-266.274-2h265.274v-57.97h-265.274v57.97Z" fill="#292a2e"></path>
          <g>
            <circle cx="411.154" cy="215.137" r="12.303" fill="#fff"></circle>
            <path d="m411.155,228.44c-7.335,0-13.303-5.968-13.303-13.303s5.968-13.303,13.303-13.303,13.303,5.968,13.303,13.303-5.968,13.303-13.303,13.303Zm0-24.605c-6.232,0-11.303,5.07-11.303,11.303s5.07,11.303,11.303,11.303,11.303-5.07,11.303-11.303-5.07-11.303-11.303-11.303Z" fill="#292a2e"></path>
          </g>
          <path d="m592.31,214.902h-152.979c-.553,0-1-.447-1-1s.447-1,1-1h152.979c.553,0,1,.447,1,1s-.447,1-1,1Z" fill="#292a2e"></path>
          <path d="m614.798,214.902h-3.175c-.553,0-1-.447-1-1s.447-1,1-1h3.175c.553,0,1,.447,1,1s-.447,1-1,1Z" fill="#292a2e"></path>
          <path d="m603.657,214.902h-3.175c-.553,0-1-.447-1-1s.447-1,1-1h3.175c.553,0,1,.447,1,1s-.447,1-1,1Z" fill="#292a2e"></path>
          <path d="m626.705,214.902h-3.175c-.553,0-1-.447-1-1s.447-1,1-1h3.175c.553,0,1,.447,1,1s-.447,1-1,1Z" fill="#292a2e"></path>
        </g>
        <g>
          <rect x="380.86" y="268.405" width="267.274" height="59.97" fill="#367cff"></rect>
          <g fill="none" opacity=".5">
            <rect x="380.86" y="268.405" width="267.274" height="59.97" fill="#fff"></rect>
          </g>
          <path d="m648.135,329.375h-267.274c-.553,0-1-.447-1-1v-59.97c0-.553.447-1,1-1h267.274c.553,0,1,.447,1,1v59.97c0,.553-.447,1-1,1Zm-266.274-2h265.274v-57.97h-265.274v57.97Z" fill="#292a2e"></path>
          <g>
            <circle cx="411.154" cy="298.39" r="12.303" fill="#fff"></circle>
            <path d="m411.155,311.693c-7.335,0-13.303-5.968-13.303-13.303s5.968-13.303,13.303-13.303,13.303,5.968,13.303,13.303-5.968,13.303-13.303,13.303Zm0-24.605c-6.232,0-11.303,5.07-11.303,11.303s5.07,11.303,11.303,11.303,11.303-5.07,11.303-11.303-5.07-11.303-11.303-11.303Z" fill="#292a2e"></path>
          </g>
          <path d="m592.31,298.155h-152.979c-.553,0-1-.447-1-1s.447-1,1-1h152.979c.553,0,1,.447,1,1s-.447,1-1,1Z" fill="#292a2e"></path>
          <path d="m614.798,298.155h-3.175c-.553,0-1-.447-1-1s.447-1,1-1h3.175c.553,0,1,.447,1,1s-.447,1-1,1Z" fill="#292a2e"></path>
          <path d="m603.657,298.155h-3.175c-.553,0-1-.447-1-1s.447-1,1-1h3.175c.553,0,1,.447,1,1s-.447,1-1,1Z" fill="#292a2e"></path>
          <path d="m626.705,298.155h-3.175c-.553,0-1-.447-1-1s.447-1,1-1h3.175c.553,0,1,.447,1,1s-.447,1-1,1Z" fill="#292a2e"></path>
        </g>
        <g>
          <rect x="380.86" y="351.658" width="267.274" height="59.97" fill="#367cff"></rect>
          <g fill="none" opacity=".5">
            <rect x="380.86" y="351.658" width="267.274" height="59.97" fill="#fff"></rect>
          </g>
          <path d="m648.135,412.628h-267.274c-.553,0-1-.447-1-1v-59.97c0-.553.447-1,1-1h267.274c.553,0,1,.447,1,1v59.97c0,.553-.447,1-1,1Zm-266.274-2h265.274v-57.97h-265.274v57.97Z" fill="#292a2e"></path>
          <g>
            <circle cx="411.154" cy="381.643" r="12.303" fill="#fff"></circle>
            <path d="m411.155,394.946c-7.335,0-13.303-5.968-13.303-13.303s5.968-13.303,13.303-13.303,13.303,5.968,13.303,13.303-5.968,13.303-13.303,13.303Zm0-24.605c-6.232,0-11.303,5.07-11.303,11.303s5.07,11.303,11.303,11.303,11.303-5.07,11.303-11.303-5.07-11.303-11.303-11.303Z" fill="#292a2e"></path>
          </g>
          <path d="m592.31,381.408h-152.979c-.553,0-1-.447-1-1s.447-1,1-1h152.979c.553,0,1,.447,1,1s-.447,1-1,1Z" fill="#292a2e"></path>
          <path d="m614.798,381.408h-3.175c-.553,0-1-.447-1-1s.447-1,1-1h3.175c.553,0,1,.447,1,1s-.447,1-1,1Z" fill="#292a2e"></path>
          <path d="m603.657,381.408h-3.175c-.553,0-1-.447-1-1s.447-1,1-1h3.175c.553,0,1,.447,1,1s-.447,1-1,1Z" fill="#292a2e"></path>
          <path d="m626.705,381.408h-3.175c-.553,0-1-.447-1-1s.447-1,1-1h3.175c.553,0,1,.447,1,1s-.447,1-1,1Z" fill="#292a2e"></path>
        </g>
        <path d="m648.135,495.881h-267.274c-.553,0-1-.447-1-1v-59.97c0-.553.447-1,1-1h267.274c.553,0,1,.447,1,1v59.97c0,.553-.447,1-1,1Zm-266.274-2h265.274v-57.97h-265.274v57.97Z" fill="#292a2e"></path>
        <g>
          <rect x="268.328" y="434.911" width="277.274" height="59.97" fill="#367cff"></rect>
          <g fill="none" opacity=".5">
            <rect x="268.328" y="434.911" width="277.274" height="59.97" fill="#fff"></rect>
          </g>
          <path d="m545.602,495.881h-277.274c-.553,0-1-.447-1-1v-59.97c0-.553.447-1,1-1h277.274c.553,0,1,.447,1,1v59.97c0,.553-.447,1-1,1Zm-276.274-2h275.274v-57.97h-275.274v57.97Z" fill="#292a2e"></path>
          <g>
            <circle cx="298.622" cy="464.896" r="12.303" fill="#fff"></circle>
            <path d="m298.622,478.198c-7.335,0-13.303-5.968-13.303-13.303s5.968-13.303,13.303-13.303,13.303,5.968,13.303,13.303-5.968,13.303-13.303,13.303Zm0-24.605c-6.232,0-11.303,5.07-11.303,11.303s5.07,11.303,11.303,11.303,11.303-5.07,11.303-11.303-5.07-11.303-11.303-11.303Z" fill="#292a2e"></path>
          </g>
          <path d="m489.777,464.661h-162.978c-.553,0-1-.447-1-1s.447-1,1-1h162.978c.553,0,1,.447,1,1s-.447,1-1,1Z" fill="#292a2e"></path>
          <path d="m512.266,464.661h-3.175c-.553,0-1-.447-1-1s.447-1,1-1h3.175c.553,0,1,.447,1,1s-.447,1-1,1Z" fill="#292a2e"></path>
          <path d="m501.124,464.661h-3.175c-.553,0-1-.447-1-1s.447-1,1-1h3.175c.553,0,1,.447,1,1s-.447,1-1,1Z" fill="#292a2e"></path>
          <path d="m524.172,464.661h-3.176c-.553,0-1-.447-1-1s.447-1,1-1h3.176c.553,0,1,.447,1,1s-.447,1-1,1Z" fill="#292a2e"></path>
        </g>
        <g>
          <rect x="380.86" y="518.164" width="267.274" height="59.97" fill="#367cff"></rect>
          <g fill="none" opacity=".5">
            <rect x="380.86" y="518.164" width="267.274" height="59.97" fill="#fff"></rect>
          </g>
          <path d="m648.135,579.134h-267.274c-.553,0-1-.447-1-1v-59.97c0-.553.447-1,1-1h267.274c.553,0,1,.447,1,1v59.97c0,.553-.447,1-1,1Zm-266.274-2h265.274v-57.97h-265.274v57.97Z" fill="#292a2e"></path>
          <g>
            <circle cx="411.154" cy="548.149" r="12.303" fill="#fff"></circle>
            <path d="m411.155,561.451c-7.335,0-13.303-5.968-13.303-13.303s5.968-13.303,13.303-13.303,13.303,5.968,13.303,13.303-5.968,13.303-13.303,13.303Zm0-24.605c-6.232,0-11.303,5.07-11.303,11.303s5.07,11.303,11.303,11.303,11.303-5.07,11.303-11.303-5.07-11.303-11.303-11.303Z" fill="#292a2e"></path>
          </g>
          <path d="m592.31,547.914h-152.979c-.553,0-1-.447-1-1s.447-1,1-1h152.979c.553,0,1,.447,1,1s-.447,1-1,1Z" fill="#292a2e"></path>
          <path d="m614.798,547.914h-3.175c-.553,0-1-.447-1-1s.447-1,1-1h3.175c.553,0,1,.447,1,1s-.447,1-1,1Z" fill="#292a2e"></path>
          <path d="m603.657,547.914h-3.175c-.553,0-1-.447-1-1s.447-1,1-1h3.175c.553,0,1,.447,1,1s-.447,1-1,1Z" fill="#292a2e"></path>
          <path d="m626.705,547.914h-3.175c-.553,0-1-.447-1-1s.447-1,1-1h3.175c.553,0,1,.447,1,1s-.447,1-1,1Z" fill="#292a2e"></path>
        </g>
        <g>
          <rect x="380.86" y="601.417" width="267.274" height="59.97" fill="#367cff"></rect>
          <g fill="none" opacity=".5">
            <rect x="380.86" y="601.417" width="267.274" height="59.97" fill="#fff"></rect>
          </g>
          <path d="m648.135,662.387h-267.274c-.553,0-1-.447-1-1v-59.97c0-.553.447-1,1-1h267.274c.553,0,1,.447,1,1v59.97c0,.553-.447,1-1,1Zm-266.274-2h265.274v-57.97h-265.274v57.97Z" fill="#292a2e"></path>
          <g>
            <circle cx="411.154" cy="631.402" r="12.303" fill="#fff"></circle>
            <path d="m411.155,644.704c-7.335,0-13.303-5.968-13.303-13.303s5.968-13.303,13.303-13.303,13.303,5.968,13.303,13.303-5.968,13.303-13.303,13.303Zm0-24.605c-6.232,0-11.303,5.07-11.303,11.303s5.07,11.303,11.303,11.303,11.303-5.07,11.303-11.303-5.07-11.303-11.303-11.303Z" fill="#292a2e"></path>
          </g>
          <path d="m592.31,631.167h-152.979c-.553,0-1-.447-1-1s.447-1,1-1h152.979c.553,0,1,.447,1,1s-.447,1-1,1Z" fill="#292a2e"></path>
          <path d="m614.798,631.167h-3.175c-.553,0-1-.447-1-1s.447-1,1-1h3.175c.553,0,1,.447,1,1s-.447,1-1,1Z" fill="#292a2e"></path>
          <path d="m603.657,631.167h-3.175c-.553,0-1-.447-1-1s.447-1,1-1h3.175c.553,0,1,.447,1,1s-.447,1-1,1Z" fill="#292a2e"></path>
          <path d="m626.705,631.167h-3.175c-.553,0-1-.447-1-1s.447-1,1-1h3.175c.553,0,1,.447,1,1s-.447,1-1,1Z" fill="#292a2e"></path>
        </g>
        <g>
          <rect x="380.86" y="684.67" width="267.274" height="59.97" fill="#367cff"></rect>
          <g fill="none" opacity=".5">
            <rect x="380.86" y="684.67" width="267.274" height="59.97" fill="#fff"></rect>
          </g>
          <path d="m648.135,745.64h-267.274c-.553,0-1-.447-1-1v-59.97c0-.553.447-1,1-1h267.274c.553,0,1,.447,1,1v59.97c0,.553-.447,1-1,1Zm-266.274-2h265.274v-57.97h-265.274v57.97Z" fill="#292a2e"></path>
          <g>
            <circle cx="411.154" cy="714.655" r="12.303" fill="#fff"></circle>
            <path d="m411.155,727.957c-7.335,0-13.303-5.968-13.303-13.303s5.968-13.303,13.303-13.303,13.303,5.968,13.303,13.303-5.968,13.303-13.303,13.303Zm0-24.605c-6.232,0-11.303,5.07-11.303,11.303s5.07,11.303,11.303,11.303,11.303-5.07,11.303-11.303-5.07-11.303-11.303-11.303Z" fill="#292a2e"></path>
          </g>
          <path d="m592.31,714.42h-152.979c-.553,0-1-.447-1-1s.447-1,1-1h152.979c.553,0,1,.447,1,1s-.447,1-1,1Z" fill="#292a2e"></path>
          <path d="m614.798,714.42h-3.175c-.553,0-1-.447-1-1s.447-1,1-1h3.175c.553,0,1,.447,1,1s-.447,1-1,1Z" fill="#292a2e"></path>
          <path d="m603.657,714.42h-3.175c-.553,0-1-.447-1-1s.447-1,1-1h3.175c.553,0,1,.447,1,1s-.447,1-1,1Z" fill="#292a2e"></path>
          <path d="m626.705,714.42h-3.175c-.553,0-1-.447-1-1s.447-1,1-1h3.175c.553,0,1,.447,1,1s-.447,1-1,1Z" fill="#292a2e"></path>
        </g>
      </g>
      <g>
        <g>
          <path d="m107.905,193.707s-4.468,24.281-9.949,31.001c-15.78,19.346-21.785,35.341-10.326,49.403,11.46,14.063,94.776,25.058,104.783-2.565,8.425-23.256-2.647-27.312-2.857-47.426-.095-9.101-1.115-28.292-1.115-28.292" fill="#0a0a0a"></path>
          <path id="sk" d="m175.911,259.63c-.145-.019-1.755,26.692-32.785,24.363-21.482-1.609-29.141-24.401-29.634-24.401,2.316-.492,6.216-1.208,7.245-1.757,3.383-1.818,7.568-3.709,8.658-10.278.628-3.786-.438-23.156-.11-26.986l32.975,7.36c-.461,8.09-3.685,26.846,7.617,30.166,1.881.549,3.906,1.054,6.033,1.534Z" fill="#ff9e85"></path>
          <path id="sh" d="m162.723,250.431c-.467-1.491-.745-2.787-.992-5.118-.442-4.168-.207-7.999.216-11.903-6.661-.887-13.057-3.689-18.225-7.984-.612,2.261-3.98,12.142-3.047,14.291,1.762,4.062,10.044,10.715,22.048,10.715Z" fill="#0c0c0c" opacity=".22"></path>
          <path d="m156.334,244.952c-13.054-.423-26.278-7.429-27.504-25.046l-3.893-16.218c-1.226-17.617,7.034-32.543,23.621-33.697h0c16.588-1.154,28.987,5.749,30.212,23.366,0,0,.848,10.097.765,13.469-.316,12.714-3.393,38.768-23.201,38.126Z" fill="#ff9e85"></path>
          <path id="e1_eb" d="m179.953,204.118c-.126.552-2.223.245-4.971-.526-2.748-.771-5.166-1.586-4.98-2.266.234-.859,2.663-.927,5.411-.156s4.737,2.08,4.54,2.948Z" fill="#0a0a0a"></path>
          <path d="m111.317,207.573l17.673,7.198c11.542-3.156,14.312-29.978,14.312-29.978,0,0,11.84,14.621,45.14,11.034,0,0-1.33-44.55-50.785-37.06-15.947,2.415-29.041,18.108-30.117,39.074-.754,14.693,3.777,9.732,3.777,9.732Z" fill="#0a0a0a"></path>
          <path d="m127.447,224.88c-5.041.351-9.911-2.001-10.418-9.591-.337-5.042,4.107-8.313,9.148-8.664l2.833,3.197,2.772,14.756-4.334.302Z" fill="#ff9e85"></path>
          <g>
            <circle id="e1_eye" cx="174.736" cy="209.673" r="1.809" transform="translate(-53.986 358.607) rotate(-83.264)" fill="#0a0a0a"></circle>
            <g id="e1_n">
              <path d="m161.852,221.602c-.363-.043-.643-.354-.638-.728.005-.4.333-.719.733-.714l3.852.052-1.444-7.877c-.072-.393.188-.77.582-.842.393-.072.77.188.842.581l1.602,8.743c.039.213-.02.432-.159.597s-.346.259-.562.257l-4.732-.063c-.026,0-.051-.002-.076-.005Z" fill="#0a0a0a"></path>
            </g>
            <g id="e1_m">
              <path d="m159.531,229.529c-6.542.457-8.765-3.36-8.865-3.539-.195-.349-.071-.789.277-.985.346-.195.785-.072.982.274.094.162,2.362,3.905,9.501,2.541.4-.078.772.183.847.575.075.392-.183.771-.575.846-.77.147-1.492.24-2.168.287Z" fill="#0a0a0a"></path>
            </g>
            <path id="e1_eb-2" data-name="e1_eb" d="m158.182,201.165c.109.555-1.932,1.126-4.756,1.536s-5.365.647-5.471-.051c-.134-.88,2.058-1.928,4.882-2.338,2.824-.41,5.174-.021,5.346.853Z" fill="#0a0a0a"></path>
            <circle id="e1_eye-2" data-name="e1_eye" cx="155.795" cy="208.434" r="1.809" transform="translate(-69.475 338.703) rotate(-83.264)" fill="#0a0a0a"></circle>
          </g>
          <path d="m119.924,202.429l-1.035,6.826c1.486-1.411,3.494-2.278,5.707-2.279.551-.008,1.088.063,1.609.169,2.97,2.983.082,7.45,2.785,7.626,1.535.1,5.439-3.09,6.536-5.226.696-1.354-2.474-7.238-2.276-8.747" fill="#0a0a0a"></path>
        </g>
        <g>
          <path d="m77.339,747.122s-11.185,16.531,1.018,30.279c12.203,13.747-.947,21.27-.947,21.27l-49.584-49.584,24.773-24.773,24.74,22.807Z" fill="#367cff"></path>
          <path d="m79.975,407.083s.22-5.892.174,7.473c-.077,22.193,2.034,80.839.551,156.425-1.186,60.421-43.246,164.103-43.246,164.103l37.935,27.228s57.063-92.554,66.119-184.179c4.636-46.901,14.119-173.077,14.119-173.077l-75.651,2.026Z" fill="#262626"></path>
          <path d="m197.033,764.588s3.781,19.598,22.13,20.69,14.37,15.71,14.37,15.71h-70.122v-35.034s33.621-1.367,33.621-1.367Z" fill="#367cff"></path>
          <path d="m205.946,410.954s5.756,170.371,5.158,178.698l-5.412,186.153-45.316.837-7.307-193.723s-4.79-53.438-17.701-103.06c-6.625-25.462-10.562-51.547-11.864-77.825h0s82.444,8.919,82.444,8.919Z" fill="#262626"></path>
          <path d="m146.163,531.746l3.779-57.787s3.881,24.024,3.881,44.731c0,10.121-2.085,50.194-2.085,50.194l-5.575-37.138Z" fill="#0a0a0a"></path>
          <path d="m79.474,407.078l-.151.008s.109-2.906.151-.008Z" fill="#333"></path>
        </g>
        <path d="m79.664,407.078l-.151.008s.109-2.906.151-.008Z" fill="#333"></path>
        <g>
          <path d="m212.621,316.387c-.95,11.164-5.573,80.816-6.486,94.567h-125.92c-.711-12.403-3.905-66.635-6.603-90.888-2.575-23.144-7.627-34.731-3.924-41.573,6.051-11.183,22.586-17.644,33.86-19.171,6.885-.932,17.24-1.6,17.24-1.6,0,0,.877,17.736,21.783,18.723,28.459,1.343,26.558-18.723,26.699-18.723,4.61,0,30.948,2.918,37.391,6.738,17.558,10.398,7.976,28.269,5.959,51.928Z" fill="#367cff"></path>
          <g>
            <path d="m308.331,336.798c.608-1.677,2.501-2.517,4.165-1.812,1.56.66,2.235,2.52,1.657,4.113l-1.441,3.972,9.053-9.231c1.125-1.182,3.261-1.912,4.503-.562,1.076,1.024,3.563,1.34,3.967,3.26.014.01-.011,17.584-1.055,18.68h0c-4.428,4.65-15.131,5.549-21.102,3.188l-9.398-3.716,9.651-17.892Z" fill="#ff9e85"></path>
            <g fill="none" opacity=".1">
              <path d="m308.331,336.798c.608-1.677,2.501-2.517,4.165-1.812,1.56.66,2.235,2.52,1.657,4.113l-1.441,3.972,9.053-9.231c1.125-1.182,3.261-1.912,4.503-.562,1.076,1.024,3.563,1.34,3.967,3.26.014.01-.011,17.584-1.055,18.68h0c-4.428,4.65-15.131,5.549-21.102,3.188l-9.398-3.716,9.651-17.892Z" fill="#0c0c0c"></path>
            </g>
          </g>
          <g>
            <path d="m256.684,296.395l.125,6.289c.057,2.848-2.284,4.753-5.228,4.257l-64.862-10.944c-2.944-.497-5.285,1.409-5.228,4.257l-5.99,83.042c.057,2.848,2.489,5.559,5.434,6.056l126.102,22.198c2.944.497,5.285-1.409,5.228-4.257l2.589-100.587c-.057-2.848-2.489-5.559-5.434-6.056l-47.508-8.512c-2.944-.497-5.285,1.409-5.228,4.257Z" fill="#262626"></path>
            <path d="m307.942,412.627c-.353,0-.711-.03-1.071-.091l-126.11-22.2c-3.383-.569-6.194-3.72-6.26-7.021l5.993-83.134c-.035-1.543.586-2.994,1.746-3.995,1.209-1.041,2.903-1.469,4.646-1.176l64.862,10.944c1.175.2,2.241-.057,3.007-.718.701-.604,1.076-1.504,1.055-2.532l-.125-6.29c-.032-1.635.589-3.086,1.749-4.087,1.208-1.041,2.903-1.467,4.646-1.176l47.519,8.514c3.438.58,6.189,3.665,6.257,7.021l-2.59,100.632c.033,1.589-.588,3.04-1.747,4.041-.958.826-2.222,1.268-3.575,1.268Zm-122.149-115.709c-.87,0-1.649.269-2.246.783-.701.604-1.076,1.504-1.056,2.533l-5.993,83.134c.05,2.295,2.113,4.578,4.603,4.997l126.11,22.2c1.166.197,2.234-.061,3-.721.7-.604,1.075-1.504,1.054-2.531l2.59-100.633c-.047-2.341-2.111-4.624-4.6-5.044l-47.519-8.514c-1.159-.194-2.229.059-2.996.72-.701.604-1.076,1.504-1.056,2.533l.125,6.289c.033,1.634-.588,3.086-1.748,4.087-1.208,1.042-2.901,1.47-4.646,1.176l-64.862-10.944c-.26-.044-.514-.065-.761-.065Z" fill="#292a2e"></path>
          </g>
          <g>
            <g>
              <polygon points="295.441 390.632 192.644 377.544 209.702 243.572 292.836 254.157 309.88 277.227 295.441 390.632" fill="#fff"></polygon>
              <path d="m295.441,391.633c-.042,0-.084-.003-.126-.008l-102.797-13.089c-.548-.07-.936-.57-.866-1.118l17.058-133.973c.034-.264.17-.502.38-.665.211-.161.475-.232.738-.201l83.135,10.586c.271.035.516.179.679.398l17.044,23.069c.152.207.22.465.188.72l-14.439,113.406c-.033.264-.17.502-.38.665-.177.136-.392.209-.612.209Zm-101.679-14.954l100.813,12.836,14.262-112.017-16.552-22.402-81.719-10.406-16.805,131.989Z" fill="#292a2e"></path>
            </g>
            <g>
              <polygon points="292.836 254.157 290.256 274.418 309.88 277.227 292.836 254.157" fill="#fff"></polygon>
              <path d="m309.88,278.227c-.047,0-.094-.003-.142-.01l-19.624-2.809c-.541-.078-.919-.574-.851-1.116l2.58-20.261c.052-.405.345-.738.74-.842.392-.103.813.044,1.057.374l17.044,23.069c.239.324.261.761.054,1.106-.182.305-.51.487-.858.487Zm-18.508-4.659l16.283,2.33-14.143-19.141-2.141,16.811Z" fill="#292a2e"></path>
            </g>
          </g>
          <g>
            <polygon points="291.369 391.528 194.287 355.285 241.522 228.761 320.034 258.071 331.353 284.427 291.369 391.528" fill="#367cff"></polygon>
            <g fill="none" opacity=".43">
              <polygon points="291.369 391.528 194.287 355.285 241.522 228.761 320.034 258.071 331.353 284.427 291.369 391.528" fill="#fff"></polygon>
            </g>
            <path d="m291.37,392.528c-.116,0-.234-.021-.35-.063l-97.083-36.243c-.249-.093-.45-.28-.561-.521-.109-.241-.119-.517-.026-.765l47.235-126.524c.192-.518.769-.779,1.286-.587l78.513,29.311c.256.095.462.291.569.542l11.318,26.355c.102.236.108.503.018.744l-39.983,107.102c-.149.402-.531.65-.937.65Zm-95.797-37.83l95.21,35.544,39.493-105.789-10.991-25.595-77.176-28.812-46.536,124.651Z" fill="#292a2e"></path>
            <g>
              <polygon points="320.034 258.071 312.891 277.206 331.353 284.427 320.034 258.071" fill="#fff"></polygon>
              <path d="m331.353,285.427c-.122,0-.246-.022-.364-.068l-18.462-7.221c-.509-.199-.764-.77-.572-1.281l7.144-19.135c.143-.383.504-.641.912-.65h.024c.399,0,.761.237.919.605l11.318,26.355c.159.37.08.8-.2,1.09-.192.198-.453.305-.719.305Zm-17.181-8.793l15.318,5.991-9.392-21.868-5.927,15.877Z" fill="#292a2e"></path>
            </g>
            <path d="m312.834,295.483c-.116,0-.234-.021-.35-.063l-71.846-26.843c-.518-.193-.78-.77-.587-1.286.193-.518.77-.778,1.286-.587l71.846,26.843c.518.193.78.77.587,1.286-.15.402-.531.65-.937.65Z" fill="#292a2e"></path>
            <path d="m307.512,308.727c-.116,0-.234-.021-.35-.063l-71.846-26.843c-.518-.193-.78-.77-.587-1.286.194-.518.77-.778,1.286-.587l71.846,26.843c.518.193.78.77.587,1.286-.15.402-.531.65-.937.65Z" fill="#292a2e"></path>
            <path d="m302.521,322.027c-.116,0-.234-.021-.35-.063l-71.846-26.843c-.518-.193-.78-.77-.587-1.286.193-.518.77-.779,1.286-.587l71.846,26.843c.518.193.78.77.587,1.286-.15.402-.531.65-.937.65Z" fill="#292a2e"></path>
          </g>
          <g>
            <path d="m271.608,296.395l-1.097,6.289c-.497,2.848-3.208,4.753-6.056,4.257l-62.735-10.944c-2.848-.497-5.559,1.409-6.056,4.257l-14.652,83.985c-.497,2.848,1.409,5.559,4.257,6.056l121.837,21.255c2.848.497,5.559-1.409,6.056-4.257l3.647-20.906,11.904-68.235,1.997-11.446c.497-2.848-1.409-5.559-4.257-6.056l-48.79-8.512c-2.848-.497-5.559,1.409-6.056,4.257Z" fill="#fff"></path>
            <path d="m308.008,412.628c-.354,0-.713-.03-1.073-.093l-121.838-21.255c-3.386-.592-5.66-3.827-5.069-7.213l14.651-83.985c.286-1.641,1.193-3.071,2.557-4.029,1.362-.958,3.015-1.324,4.656-1.041l62.734,10.944c1.113.195,2.236-.057,3.163-.707.925-.65,1.541-1.622,1.735-2.736l1.098-6.289c.286-1.641,1.194-3.071,2.557-4.029s3.016-1.324,4.656-1.041l48.79,8.512c1.641.286,3.071,1.194,4.028,2.557.958,1.362,1.327,3.016,1.041,4.656l-17.547,100.587c-.528,3.025-3.168,5.163-6.14,5.163Zm-107.197-115.71c-.863,0-1.704.265-2.426.771-.925.65-1.541,1.622-1.735,2.736l-14.651,83.985c-.401,2.3,1.143,4.497,3.442,4.898l121.838,21.255c2.301.401,4.497-1.145,4.898-3.443l17.547-100.587c.401-2.3-1.143-4.497-3.442-4.898l-48.79-8.512c-2.309-.404-4.498,1.145-4.898,3.443l-1.098,6.289c-.286,1.641-1.193,3.071-2.557,4.029-1.362.957-3.015,1.324-4.656,1.041l-62.734-10.944c-.246-.043-.492-.064-.737-.064Z" fill="#292a2e"></path>
          </g>
          <path d="m317.197,347.788c.367-1.291,1.457-1.82,2.468-1.866-.007-.045-.056-.148.022-.156l-1.923-.934c-1.162-.565-1.827-1.901-1.409-3.124.434-1.268,1.727-1.921,2.94-1.644-.009-.024.004-.05.003-.075l-.79-.384c-1.093-.531-1.737-1.757-1.421-2.931.425-1.58,2.138-2.309,3.533-1.631l1.824.886c.003-.01-.003-.021.001-.031.005-.013.022-.016.03-.028-.897-.717-1.215-1.98-.692-3.056.555-1.365,2.368-1.416,3.547-.844l3.574,2.092c1.121.656,1.836,1.829,1.911,3.125.319,5.521.806,19.963-2.957,18.135l-9.265-4.499c-1.069-.519-1.721-1.892-1.397-3.035Z" fill="#ff9e85"></path>
          <g>
            <path d="m213.627,371.197c-.091-1.335-1.008-2.342-2.162-2.672.021-.049.042-.1.03-.157-.022-.099-.098-.157-.185-.187l2.475-.549c1.496-.332,2.63-1.692,2.483-3.217-.152-1.582-1.465-2.69-2.94-2.704.016-.025.009-.058.017-.087l1.017-.226c1.407-.312,2.486-1.55,2.444-2.991-.056-1.939-1.833-3.25-3.628-2.852l-2.347.521c0-.013.01-.023.007-.036-.002-.017-.021-.025-.026-.04,1.231-.581,1.945-1.951,1.638-3.336-.265-1.727-2.343-2.284-3.86-1.947l-13.694,2.79,3.249-2.375c1.303-.953,1.757-2.782.874-4.133-.942-1.441-2.885-1.782-4.256-.779l-17.74,12.97c-4.327,3.164-5.352,9.196-2.313,13.611h0c3.468,5.038,9.646,7.469,15.617,6.143l20.858-4.629c1.376-.305,2.54-1.712,2.444-3.118Z" fill="#ff9e85"></path>
            <g fill="none" opacity=".25">
              <path d="m197.28,358.827c.033.145.177.238.323.208l13.02-2.67c.149-.031.244-.176.214-.325-.017-.142-.176-.245-.325-.214l-13.02,2.67c-.149.031-.244.176-.214.325v.006Z" fill="#0c0c0c"></path>
            </g>
            <g fill="none" opacity=".25">
              <path d="m198.299,364.601c.033.145.177.238.323.208l14.53-2.98c.149-.031.244-.176.214-.325-.029-.136-.176-.244-.325-.214l-14.53,2.98c-.149.031-.244.176-.214.325v.006Z" fill="#0c0c0c"></path>
            </g>
            <g fill="none" opacity=".25">
              <path d="m199.367,370.862c.033.145.177.238.323.208l11.591-2.377c.149-.031.244-.176.214-.325-.034-.15-.176-.244-.325-.214l-11.591,2.377c-.149.031-.244.176-.214.325v.006Z" fill="#0c0c0c"></path>
            </g>
          </g>
          <path id="b_4_b" d="m189.035,387.2l-113.168,20.451c-.832.09-1.663.135-2.489.135-6.292,0-12.354-2.585-16.721-7.214-4.942-5.239-7.143-12.49-5.949-19.591l15.843-94.17c2.107-12.521,13.963-20.961,26.486-18.857,12.521,2.107,20.964,13.965,18.857,26.486l-10.803,64.826,82.969-10.42,4.975,38.354Z" fill="#367cff"></path>
          <g id="b_4_b-2" data-name="b_4_b">
            <path d="m75.866,408.07c-.199,0-.375-.141-.411-.344-.041-.227.11-.446.338-.487l112.776-20.38-4.871-37.545-82.555,10.368c-.137.016-.263-.029-.354-.125s-.133-.228-.111-.359l6.868-41.432c.038-.227.251-.388.482-.344.228.038.382.254.344.482l-6.776,40.877,82.412-10.35c.224-.028.438.132.468.361l4.975,38.354c.029.222-.121.426-.341.466l-113.168,20.451c-.025.004-.05.007-.075.007Z" fill="#0c0c0c"></path>
          </g>
          <rect x="93.766" y="359.432" width="7.372" height=".838" transform="translate(-55.655 19.928) rotate(-9.095)" fill="#0c0c0c"></rect>
        </g>
      </g>
      <g>
        <path d="m813.022,632.167h-54.88v-2h54.88c28.092,0,50.946-22.854,50.946-50.946V226.882h2v352.339c0,29.194-23.752,52.946-52.946,52.946Z" fill="#292a2e"></path>
        <g>
          <circle cx="864.968" cy="289.167" r="6.425" fill="#fff"></circle>
          <path d="m864.968,296.592c-4.094,0-7.425-3.331-7.425-7.425s3.331-7.426,7.425-7.426,7.426,3.331,7.426,7.426-3.331,7.425-7.426,7.425Zm0-12.851c-2.991,0-5.425,2.434-5.425,5.426s2.434,5.425,5.425,5.425,5.426-2.434,5.426-5.425-2.434-5.426-5.426-5.426Z" fill="#292a2e"></path>
        </g>
        <g>
          <circle cx="864.968" cy="379.595" r="6.425" fill="#292a2e"></circle>
          <path d="m864.968,387.021c-4.094,0-7.425-3.331-7.425-7.426s3.331-7.425,7.425-7.425,7.426,3.331,7.426,7.425-3.331,7.426-7.426,7.426Zm0-12.851c-2.991,0-5.425,2.434-5.425,5.425s2.434,5.426,5.425,5.426,5.426-2.434,5.426-5.426-2.434-5.425-5.426-5.425Z" fill="#fff"></path>
        </g>
        <g>
          <circle cx="864.968" cy="470.023" r="6.425" fill="#fff"></circle>
          <path d="m864.968,477.449c-4.094,0-7.425-3.331-7.425-7.426s3.331-7.426,7.425-7.426,7.426,3.331,7.426,7.426-3.331,7.426-7.426,7.426Zm0-12.852c-2.991,0-5.425,2.434-5.425,5.426s2.434,5.426,5.425,5.426,5.426-2.434,5.426-5.426-2.434-5.426-5.426-5.426Z" fill="#292a2e"></path>
        </g>
        <g>
          <circle cx="864.968" cy="560.452" r="6.425" fill="#fff"></circle>
          <path d="m864.968,567.877c-4.094,0-7.425-3.331-7.425-7.426s3.331-7.425,7.425-7.425,7.426,3.331,7.426,7.425-3.331,7.426-7.426,7.426Zm0-12.851c-2.991,0-5.425,2.434-5.425,5.425s2.434,5.426,5.425,5.426,5.426-2.434,5.426-5.426-2.434-5.425-5.426-5.425Z" fill="#292a2e"></path>
        </g>
        <g>
          <circle cx="815.873" cy="631.402" r="6.425" fill="#292a2e"></circle>
          <path d="m815.874,638.827c-4.095,0-7.426-3.331-7.426-7.426s3.331-7.425,7.426-7.425,7.425,3.331,7.425,7.425-3.331,7.426-7.425,7.426Zm0-12.851c-2.992,0-5.426,2.434-5.426,5.425s2.434,5.426,5.426,5.426,5.425-2.434,5.425-5.426-2.434-5.425-5.425-5.425Z" fill="#fff"></path>
        </g>
      </g>
      <path d="m1,800.671h928.139c.552,0,1-.448,1-1,0-.552-.448-1-1-1H1c-.552,0-1,.448-1,1,0,.552.448,1,1,1Z" fill="#262626"></path>
    </g>
  </g>
</svg>