<svg height="48pt" viewBox="0 0 48 48" width="48pt" xmlns="http://www.w3.org/2000/svg" xmlns:xlink="http://www.w3.org/1999/xlink"><linearGradient id="a" gradientUnits="userSpaceOnUse" x1="5.168" x2="53.170812" y1="47.176" y2="6.875124"><stop offset="0" stop-color="#8a2387"/><stop offset=".48260869565" stop-color="#e94057"/><stop offset=".98260869565" stop-color="#f7797d"/></linearGradient><path d="m33 13h-.5c-1.104 0-2 .896-2 2l.892 16.503c.06 1.102 1.004 1.997 2.108 1.997h3v1.37l-12.49 3.57-12.42-3.64-.04-1.3h2.95c1.104 0 2.048-.895 2.108-1.997l.892-16.503c0-1.104-.896-2-2-2h-.833-.167q-.6 0-1.5 0h-6c-2.76 0-5 2.24-5 5v24c0 2.76 2.24 5 5 5h34c2.76 0 5-2.24 5-5v-24c0-2.76-2.24-5-5-5h-7-.5zm.629 4 .871 13.5h3c1.104 0 2 .896 2 2v2.63c0 1.104-.862 2.246-1.923 2.549l-13.587 3.881-13.401-3.936c-1.059-.311-1.949-1.46-1.986-2.563l-.086-2.562c-.037-1.103.829-1.999 1.933-1.999h3.05l.871-13.5h-.371-5c-1.656 0-3 1.344-3 3v20c0 1.656 1.344 3 3 3h30c1.656 0 3-1.344 3-3v-20c0-1.656-1.344-3-3-3h-5zm-6.129-7h10.742c1.656 0 3-1.344 3-3v-1c0-1.656-1.344-3-3-3h-28.484c-1.656 0-3 1.344-3 3v1c0 1.656 1.344 3 3 3h10.742v19.242c0 1.656 1.344 3 3 3h1c1.656 0 3-1.344 3-3z" fill="url(#a)" fill-rule="evenodd"/></svg>